<svg id="Layer_2" data-name="Layer 2" xmlns="http://www.w3.org/2000/svg" xmlns:xlink="http://www.w3.org/1999/xlink" viewBox="0 0 280 280"><defs><style>.cls-1{fill:none;}.cls-2{fill:#b80000;}.cls-3{fill:#fff;}.cls-4{fill:#d4ab24;}.cls-5{clip-path:url(#clip-path);}</style><clipPath id="clip-path"><path class="cls-1" d="M71.61,85.06a131.91,131.91,0,0,0-8,45.46c0,53,31.22,98.76,76.42,120.24,45.21-21.48,76.42-67.25,76.42-120.24a131.91,131.91,0,0,0-8-45.46A156.38,156.38,0,0,0,140,69.77,156.38,156.38,0,0,0,71.61,85.06Z"/></clipPath></defs><title>Artboard 14 copy 26</title><path class="cls-2" d="M140.16,114.7l53.59-92.82a156,156,0,0,0-107.5-.56Z"/><path class="cls-3" d="M136.06,268A156.87,156.87,0,0,1,71.7,211.6,154.67,154.67,0,0,1,56.26,74.51L57.53,71l3.33-1.62C84.66,57.81,112,51.68,140,51.68s55.34,6.13,79.14,17.73L222.47,71l1.27,3.48A154.67,154.67,0,0,1,208.3,211.6,156.87,156.87,0,0,1,143.94,268L140,269.83Z"/><path class="cls-4" d="M140,60.86c27.53,0,53.25,6.15,75.12,16.8a144.9,144.9,0,0,1,8.82,49.93c0,58.2-34.29,108.47-83.94,132.07C90.35,236.07,56.06,185.8,56.06,127.59a144.9,144.9,0,0,1,8.82-49.93C86.75,67,112.47,60.86,140,60.86m0-18.37c-29.36,0-58.12,6.45-83.17,18.66L50.18,64.4l-2.55,7A163.85,163.85,0,0,0,64,216.6a166.06,166.06,0,0,0,68.12,59.65L140,280l7.88-3.75A166.06,166.06,0,0,0,216,216.6,163.85,163.85,0,0,0,232.37,71.35l-2.55-7-6.66-3.24C198.12,48.95,169.36,42.49,140,42.49Z"/><g class="cls-5"><rect class="cls-2" x="6" y="43.02" width="277" height="78.01"/><rect class="cls-2" x="119.34" y="128.85" width="41.33" height="143.27"/><rect class="cls-2" x="53.33" y="128.85" width="41.33" height="143.27"/><rect class="cls-2" x="185.34" y="128.85" width="41.33" height="143.27"/></g><rect class="cls-4" x="129.9" width="18.37" height="60.62"/><rect class="cls-4" x="84.05" y="5.25" width="18.37" height="55.18" transform="translate(-5.55 36.46) rotate(-21.5)"/><rect class="cls-4" x="157.5" y="23.66" width="55.18" height="18.37" transform="translate(86.69 193.01) rotate(-68.5)"/><rect class="cls-3" x="86.68" y="92.9" width="9.19" height="13.88" transform="translate(-0.58 0.53) rotate(-0.33)"/><rect class="cls-3" x="105.91" y="88.89" width="9.19" height="17.89" transform="translate(-1.11 1.26) rotate(-0.65)"/><rect class="cls-3" x="125.26" y="86.88" width="9.19" height="19.9" transform="translate(-0.45 0.61) rotate(-0.27)"/><rect class="cls-3" x="139.28" y="92.24" width="19.9" height="9.19" transform="translate(51.7 245.61) rotate(-89.73)"/><rect class="cls-3" x="159.63" y="93.24" width="17.89" height="9.19" transform="translate(68.84 265.29) rotate(-89.35)"/><rect class="cls-3" x="180.86" y="95.25" width="13.88" height="9.19" transform="translate(86.87 287.05) rotate(-89.66)"/></svg>