<svg id="Layer_2" data-name="Layer 2" xmlns="http://www.w3.org/2000/svg" xmlns:xlink="http://www.w3.org/1999/xlink" viewBox="0 0 280 280"><defs><style>.cls-1{fill:none;}.cls-2{fill:#003276;}.cls-3{fill:#9d8346;}.cls-4{clip-path:url(#clip-path);}.cls-5{fill:#f20000;}.cls-6{fill:#fff;}</style><clipPath id="clip-path"><path class="cls-1" d="M43.59,33.36A186,186,0,0,0,32.26,97.44c0,74.71,44,139.23,107.74,169.51,63.73-30.28,107.74-94.8,107.74-169.51a186,186,0,0,0-11.32-64.08C208.35,19.68,175.34,11.79,140,11.79S71.65,19.68,43.59,33.36Z"/></clipPath></defs><title>Artboard 14 copy 13</title><path class="cls-2" d="M137.47,272.27a195.46,195.46,0,0,1-80.18-70.21A192.63,192.63,0,0,1,38.05,31.33l.82-2.23,2.14-1c29.75-14.5,64-22.16,99-22.16s69.25,7.66,99,22.16l2.14,1,.82,2.23a192.63,192.63,0,0,1-19.24,170.73,195.46,195.46,0,0,1-80.18,70.21l-2.53,1.2Z"/><path class="cls-3" d="M140,11.79c35.34,0,68.35,7.89,96.41,21.57a186,186,0,0,1,11.32,64.08c0,74.71-44,139.23-107.74,169.51C76.27,236.66,32.26,172.14,32.26,97.44A186,186,0,0,1,43.59,33.36C71.65,19.68,104.66,11.79,140,11.79M140,0C104.1,0,69,7.87,38.42,22.76l-4.27,2.08L32.52,29.3a198.52,198.52,0,0,0,19.83,176,201.35,201.35,0,0,0,82.6,72.33L140,280l5.06-2.4a201.35,201.35,0,0,0,82.6-72.33,198.52,198.52,0,0,0,19.83-176l-1.63-4.46-4.27-2.08C211,7.87,175.9,0,140,0Z"/><g class="cls-4"><path class="cls-5" d="M64.91,15.44a252.56,252.56,0,0,0-9.46,69c0,80.43,30.88,149.9,84.13,182.51,53.25-32.61,84.13-102.07,84.13-182.51a252.56,252.56,0,0,0-9.46-69C190.79.72,169.1-7.78,139.58-7.78S88.36.72,64.91,15.44Z"/></g><rect class="cls-3" x="72.68" y="129.37" width="175.06" height="28.29"/><rect class="cls-3" x="52.79" y="159.41" width="112.8" height="28.29" transform="translate(-69.06 72.2) rotate(-28.2)"/><circle class="cls-3" cx="140" cy="157.67" r="37.22"/><path class="cls-6" d="M140,199a41.35,41.35,0,1,1,41.35-41.35A41.39,41.39,0,0,1,140,199Zm0-74.44a33.09,33.09,0,1,0,33.09,33.1A33.13,33.13,0,0,0,140,124.57Z"/><rect class="cls-6" x="71.62" y="48.03" width="11.79" height="37.73"/><rect class="cls-6" x="96.38" y="48.03" width="11.79" height="37.73"/><rect class="cls-6" x="121.14" y="48.03" width="11.79" height="37.73"/><rect class="cls-6" x="145.89" y="48.03" width="11.79" height="37.73"/><rect class="cls-6" x="170.65" y="48.03" width="11.79" height="37.73"/><rect class="cls-6" x="195.41" y="48.03" width="11.79" height="37.73"/></svg>