<svg id="Layer_2" data-name="Layer 2" xmlns="http://www.w3.org/2000/svg" viewBox="0 0 280 280"><defs><style>.cls-1,.cls-3{fill:#ff000c;}.cls-2,.cls-5{fill:#fff;}.cls-2,.cls-3,.cls-6,.cls-7{stroke:#161413;stroke-miterlimit:10;}.cls-2,.cls-3,.cls-6{stroke-width:10px;}.cls-4{fill:#161413;}.cls-6,.cls-7{fill:none;}.cls-6{stroke-dasharray:6;}.cls-7{stroke-width:13px;stroke-dasharray:8;}</style></defs><title>Artboard 14 copy 50</title><polygon class="cls-1" points="140 48.23 120.98 61.47 127.69 39.29 109.23 25.29 132.39 24.82 140 2.94 147.61 24.82 170.77 25.29 152.31 39.29 159.02 61.47 140 48.23"/><circle class="cls-2" cx="140" cy="169" r="104.98"/><circle class="cls-3" cx="140" cy="169" r="70.04"/><circle class="cls-1" cx="52.17" cy="169" r="4.58"/><circle class="cls-1" cx="226.17" cy="169" r="4.58"/><polygon class="cls-4" points="115.22 166.08 99.55 157.15 99.55 88.69 130.48 136.63 149.55 136.63 173.78 85.6 179.96 139.73 164.5 187.66 183.06 220.14 167.63 233.78 138.67 239.04 114.54 234.29 115.22 166.08"/><polygon class="cls-5" points="158.26 188.1 170.21 151.81 154.23 141.5 123.81 141.5 132.01 177.77 138.67 171.12 153.26 171.12 153.26 189.1 143.93 189.1 151.93 231.6 176.43 221.1 158.26 188.1"/><path class="cls-6" d="M58.11,200.94a87.9,87.9,0,0,0,163.77,0"/><path class="cls-7" d="M219.53,131.6a87.9,87.9,0,0,0-159.07,0"/></svg>