<svg id="Layer_2" data-name="Layer 2" xmlns="http://www.w3.org/2000/svg" viewBox="0 0 280 280"><defs><style>.cls-1{fill:#00458a;stroke:#fcb000;stroke-miterlimit:10;stroke-width:10px;}.cls-2{fill:#fcb000;}</style></defs><title>Artboard 14 copy 39</title><path class="cls-1" d="M194.36,10.47A68.73,68.73,0,0,1,143,33.41,68.73,68.73,0,0,1,91.19,9.87L34.56,56.49A213.64,213.64,0,0,0,142.87,272.94,213.35,213.35,0,0,0,253.22,86a215.1,215.1,0,0,0-1.92-28.68Z"/><circle class="cls-2" cx="61.72" cy="95.52" r="5.6"/><circle class="cls-2" cx="88.4" cy="95.52" r="5.6"/><circle class="cls-2" cx="115.08" cy="95.52" r="5.6"/><circle class="cls-2" cx="141.76" cy="95.52" r="5.6"/><circle class="cls-2" cx="168.44" cy="95.52" r="5.6"/><circle class="cls-2" cx="195.13" cy="95.52" r="5.6"/><circle class="cls-2" cx="221.81" cy="95.52" r="5.6"/><circle class="cls-2" cx="79.1" cy="165.67" r="5.6"/><circle class="cls-2" cx="105.78" cy="165.67" r="5.6"/><circle class="cls-2" cx="132.46" cy="165.67" r="5.6"/><circle class="cls-2" cx="159.15" cy="165.67" r="5.6"/><circle class="cls-2" cx="185.83" cy="165.67" r="5.6"/><circle class="cls-2" cx="212.51" cy="165.67" r="5.6"/><circle class="cls-2" cx="90.27" cy="186.16" r="5.6"/><circle class="cls-2" cx="116.96" cy="186.16" r="5.6"/><circle class="cls-2" cx="143.64" cy="186.16" r="5.6"/><circle class="cls-2" cx="170.32" cy="186.16" r="5.6"/><circle class="cls-2" cx="197" cy="186.16" r="5.6"/><circle class="cls-2" cx="103.96" cy="209.12" r="5.6"/><circle class="cls-2" cx="130.64" cy="209.12" r="5.6"/><circle class="cls-2" cx="157.33" cy="209.12" r="5.6"/><circle class="cls-2" cx="184.01" cy="209.12" r="5.6"/><circle class="cls-2" cx="130.66" cy="230.85" r="5.6"/><circle class="cls-2" cx="157.34" cy="230.85" r="5.6"/><circle class="cls-2" cx="144.32" cy="248.85" r="5.6"/><circle class="cls-2" cx="56.75" cy="73.77" r="5.6"/><circle class="cls-2" cx="82.46" cy="73.77" r="5.6"/><circle class="cls-2" cx="108.17" cy="73.77" r="5.6"/><circle class="cls-2" cx="133.89" cy="73.77" r="5.6"/><circle class="cls-2" cx="159.6" cy="73.77" r="5.6"/><circle class="cls-2" cx="185.31" cy="73.77" r="5.6"/><circle class="cls-2" cx="211.02" cy="73.77" r="5.6"/><circle class="cls-2" cx="76.64" cy="52.65" r="5.6"/><circle class="cls-2" cx="103.33" cy="52.65" r="5.6"/><circle class="cls-2" cx="130.01" cy="52.65" r="5.6"/><circle class="cls-2" cx="156.69" cy="52.65" r="5.6"/><circle class="cls-2" cx="183.37" cy="52.65" r="5.6"/><circle class="cls-2" cx="210.05" cy="52.65" r="5.6"/><circle class="cls-2" cx="196.43" cy="35.28" r="5.6"/><circle class="cls-2" cx="91.14" cy="35.28" r="5.6"/><circle class="cls-2" cx="236.74" cy="73.77" r="5.6"/><rect class="cls-2" x="67.29" y="111.02" width="16.76" height="37.25"/><rect class="cls-2" x="93.99" y="111.02" width="16.76" height="37.25"/><rect class="cls-2" x="120.68" y="111.02" width="16.76" height="37.25"/><rect class="cls-2" x="147.38" y="111.02" width="16.76" height="37.25"/><rect class="cls-2" x="174.07" y="111.02" width="16.76" height="37.25"/><rect class="cls-2" x="200.77" y="111.02" width="16.76" height="37.25"/></svg>