<svg id="Layer_2" data-name="Layer 2" xmlns="http://www.w3.org/2000/svg" viewBox="0 0 280 280"><defs><style>.cls-1{fill:#ffed00;stroke-width:10px;}.cls-1,.cls-5,.cls-6{stroke:#000;stroke-miterlimit:10;}.cls-2{fill:#2a8347;}.cls-3{fill:#024797;}.cls-4{fill:#d82721;}.cls-5,.cls-6{fill:none;}.cls-5{stroke-width:7px;stroke-dasharray:13 8;}.cls-6{stroke-width:20px;stroke-dasharray:5 6;}</style></defs><title>Artboard 14 copy 43</title><path class="cls-1" d="M240,54.44l-70.92-.27V36.72c0-29.78-25.5-27-25.5-27-52.5,0-42,16.5-42,16.5,27-3,19.5,10.5,19.5,10.5l-7.9,17.23-73.14-.3c-1.23,8.91-1.88,36.45-1.88,45.7A196.82,196.82,0,0,0,140,271.78,196.82,196.82,0,0,0,241.8,99.35C241.8,90.37,241.19,63.09,240,54.44Z"/><polygon points="40.18 73.6 54.51 87.94 40.18 87.94 40.18 73.6"/><polygon points="38.68 105.6 53.01 119.94 38.68 119.94 38.68 105.6"/><polygon points="43.68 135.6 58.01 149.94 43.68 149.94 43.68 135.6"/><polygon points="53.18 164.1 67.51 178.44 53.18 178.44 53.18 164.1"/><polygon points="239.68 73.6 225.34 87.94 239.68 87.94 239.68 73.6"/><polygon points="241.18 105.6 226.84 119.94 241.18 119.94 241.18 105.6"/><polygon points="236.18 135.6 221.84 149.94 236.18 149.94 236.18 135.6"/><polygon points="226.68 164.1 212.34 178.44 226.68 178.44 226.68 164.1"/><path class="cls-2" d="M102.82,127.6c-.1,1.1-.16,2.21-.16,3.33a37.33,37.33,0,1,0,74.67,0c0-1.12-.06-2.23-.16-3.33Z"/><path class="cls-3" d="M103.84,140.27a37.35,37.35,0,0,0,72.31,0Z"/><path class="cls-4" d="M110.87,154.27a37.31,37.31,0,0,0,58.27,0Z"/><circle class="cls-5" cx="140" cy="130.94" r="52.03"/><line class="cls-6" x1="110.84" y1="113.27" x2="170.84" y2="113.27"/><line class="cls-6" x1="120.5" y1="218.6" x2="159.5" y2="218.6"/></svg>