<svg id="Layer_2" data-name="Layer 2" xmlns="http://www.w3.org/2000/svg" xmlns:xlink="http://www.w3.org/1999/xlink" viewBox="0 0 280 280"><defs><style>.cls-1{fill:none;}.cls-2{fill:#00a2ef;}.cls-3{fill:#a30000;}.cls-4{clip-path:url(#clip-path);}.cls-5{fill:#e5ca58;}.cls-6{fill:#960000;}.cls-7{fill:#e5c858;}</style><clipPath id="clip-path"><path class="cls-1" d="M61.1,110.69a253.08,253.08,0,0,0,22.68,67.44,258.91,258.91,0,0,0,63.06,80.46,258.91,258.91,0,0,0,63.06-80.46,253.11,253.11,0,0,0,22.68-67.44Z"/></clipPath></defs><title>Artboard 14 copy 37</title><path class="cls-2" d="M146.84,268.4A262.18,262.18,0,0,1,49.28,63.57c0-1.22,0-2.47,0-3.78,42.15-7.45,63.28-13.38,96.86-46.14C180.06,48.41,202.91,53.13,244.37,60c0,1.23,0,2.41,0,3.56A262.18,262.18,0,0,1,146.84,268.4Z"/><path class="cls-3" d="M146.06,24.13c31.12,30.07,54.71,36.1,90.81,42.25a253.44,253.44,0,0,1-27,111.76,258.91,258.91,0,0,1-63.06,80.46,258.91,258.91,0,0,1-63.06-80.46,253.43,253.43,0,0,1-27-112.06c36.73-6.75,58.75-13.74,89.24-41.94m.27-21.26C108.71,41.23,88.5,45.37,42,53.43c-.12,3.37-.21,6.74-.21,10.14A270.86,270.86,0,0,0,146.84,278,270.86,270.86,0,0,0,251.93,63.57c0-3.34-.08-6.66-.2-10-47-7.77-68.54-10.86-105.4-50.73Z"/><path class="cls-3" d="M61.1,110.69a253.08,253.08,0,0,0,22.68,67.44,258.91,258.91,0,0,0,63.06,80.46,258.91,258.91,0,0,0,63.06-80.46,253.11,253.11,0,0,0,22.68-67.44Z"/><g class="cls-4"><rect class="cls-5" x="98.93" y="73.08" width="30.09" height="118.36" transform="translate(159.05 -36.42) rotate(55.72)"/><rect class="cls-5" x="137.47" y="70.35" width="30.09" height="188.58" transform="translate(202.64 -54.12) rotate(55.72)"/><rect class="cls-5" x="167.43" y="110.83" width="26.11" height="188.58" transform="translate(248.3 -59.55) rotate(55.72)"/></g><circle class="cls-5" cx="146.58" cy="167.87" r="41.92"/><path class="cls-6" d="M146.58,213.55a45.68,45.68,0,1,1,45.68-45.68A45.74,45.74,0,0,1,146.58,213.55Zm0-83.85a38.16,38.16,0,1,0,38.16,38.16A38.21,38.21,0,0,0,146.58,129.7Z"/><rect class="cls-7" x="60.12" y="84.06" width="27.7" height="7.52" transform="translate(-14.45 161.07) rotate(-89.53)"/><rect class="cls-7" x="76.17" y="84.06" width="27.7" height="7.52" transform="translate(1.47 177.11) rotate(-89.53)"/><rect class="cls-7" x="92.22" y="84.06" width="27.7" height="7.52" transform="translate(17.38 193.16) rotate(-89.53)"/><rect class="cls-7" x="108.27" y="84.06" width="27.7" height="7.52" transform="translate(33.3 209.21) rotate(-89.53)"/><rect class="cls-7" x="124.32" y="84.06" width="27.7" height="7.52" transform="translate(49.22 225.26) rotate(-89.53)"/><rect class="cls-7" x="140.36" y="84.06" width="27.7" height="7.52" transform="translate(65.13 241.31) rotate(-89.53)"/><rect class="cls-7" x="156.41" y="84.06" width="27.7" height="7.52" transform="translate(81.05 257.35) rotate(-89.53)"/><rect class="cls-7" x="172.46" y="84.06" width="27.7" height="7.52" transform="translate(96.97 273.4) rotate(-89.53)"/><rect class="cls-7" x="188.51" y="84.06" width="27.7" height="7.52" transform="translate(112.88 289.45) rotate(-89.53)"/><rect class="cls-7" x="204.56" y="84.06" width="27.7" height="7.52" transform="translate(128.8 305.5) rotate(-89.53)"/></svg>