<svg id="Layer_2" data-name="Layer 2" xmlns="http://www.w3.org/2000/svg" viewBox="0 0 280 280"><defs><style>.cls-1{fill:#009043;}.cls-2{fill:#fff;}</style></defs><title>Artboard 14 copy 49</title><path class="cls-1" d="M140,272.94,42.91,244.85V64.27H237.09V244.85ZM54.89,235.85,140,260.47l85.11-24.62V76.25H54.89Z"/><polygon class="cls-1" points="67.33 218.79 67.33 88.16 204.37 88.16 67.33 218.79"/><path class="cls-2" d="M104.77,131.33l24.17,25.35H104.77V131.33m-12-29.92v67.26h64.11L92.79,101.41Z"/><polygon class="cls-1" points="157.71 160.7 185.66 160.7 185.66 210.41 148.05 170.96 157.71 160.7"/><path class="cls-1" d="M202.85,52.11v11.7H74.15V52.11h128.7m12-12H62.17V75.79H214.83V40.13Z"/><rect class="cls-1" x="92.23" y="47.9" width="11.98" height="15.97"/><rect class="cls-1" x="119.78" y="47.9" width="11.98" height="15.97"/><rect class="cls-1" x="147.33" y="47.9" width="11.98" height="15.97"/><rect class="cls-1" x="174.87" y="47.9" width="11.98" height="15.97"/><path class="cls-1" d="M211.05,20.94l-5.33,19.19H71.28L66,20.94H83.84v11h47v-11h15v11h47v-11h18.21M226.81,9H180.86V20H157.8V9H118.88V20H95.82V9H50.2l12,43.15H214.83L226.81,9Z"/><path class="cls-1" d="M200,129.37V218H107.11L200,129.37m12-28L77.18,229.93H212V101.41Z"/></svg>