<svg id="Layer_2" data-name="Layer 2" xmlns="http://www.w3.org/2000/svg" viewBox="0 0 280 280"><defs><style>.cls-1{fill:#75040b;}.cls-2{fill:#ff4600;}.cls-3{fill:#fe7a00;}.cls-4{fill:#ffa700;}.cls-5{fill:#d90000;}.cls-6{fill:#fe9200;}.cls-10,.cls-7,.cls-8,.cls-9{fill:none;stroke-miterlimit:10;}.cls-7,.cls-8,.cls-9{stroke:#000;}.cls-7,.cls-8{stroke-width:13px;}.cls-8{stroke-dasharray:2.99 7.96;}.cls-10,.cls-9{stroke-width:19px;}.cls-9{stroke-dasharray:10 23;}.cls-10{stroke:#fe0100;stroke-dasharray:13 8;}.cls-11{fill:#fff;}</style></defs><title>Artboard 14 copy 40</title><path class="cls-1" d="M250.28,54.54c-3.7,8.16-13.77,11.57-22.7,8.38S213.17,50.7,215.51,42q-4.77-1.35-9.57-2.52c-2.24,8.67-11.44,13.81-20.69,12.22s-16.14-9.56-15.31-18.47q-4.89-.51-9.79-.84C159.44,41.36,151.28,48,141.94,48s-17.49-6.66-18.21-15.59q-4.9.33-9.79.84c.82,8.92-6.08,16.85-15.31,18.47S80.17,48.2,77.94,39.52q-4.8,1.17-9.57,2.52c2.33,8.65-3.15,17.67-12.07,20.88s-19-.23-22.7-8.38Q30.36,56,27.15,57.48l14.68,31.2a235.11,235.11,0,0,1,200.21,0l14.68-31.2Q253.52,56,250.28,54.54Z"/><circle class="cls-2" cx="142.05" cy="17.94" r="10.65"/><circle class="cls-3" cx="92.05" cy="25.94" r="10.26"/><circle class="cls-4" cx="46.05" cy="40.94" r="7.54"/><circle class="cls-4" cx="237.01" cy="40.94" r="7.54"/><circle class="cls-3" cx="191.05" cy="25.94" r="10.26"/><path class="cls-5" d="M135.67,270c-49.61-18.57-85.45-32-85.45-86.73,0-3.88.5-9.41,1.08-15.8,2.18-24,5.42-59.64-8.75-87.9C71.36,66.7,106.78,59.66,143,59.66c35.77,0,70.71,7,99.1,19.75-16.46,28.87-12,63.73-9,87.24a153.73,153.73,0,0,1,1.61,16.62c0,50.49-31.48,63.64-75,81.86-5.63,2.35-11.43,4.78-17.32,7.36Z"/><path class="cls-6" d="M143,64.66c33,0,65.32,6.06,92.15,17.2-14.2,29.18-9.94,62.53-7,85.43a151.78,151.78,0,0,1,1.57,16c0,22-6,37.12-19.47,49.17-12.85,11.5-31.23,19.18-52.51,28.08-5.05,2.11-10.24,4.28-15.53,6.58l-4.74-1.77c-24.29-9.09-45.27-16.94-60-29.13-15.37-12.74-22.22-29.06-22.22-52.91,0-3.65.49-9.08,1.06-15.35,2.11-23.28,5.2-57.2-7-85.79C76.55,70.82,109.4,64.66,143,64.66m0-10c-38.31,0-76.42,7.71-107.36,22.61,20.78,35,9.61,86.7,9.61,106,0,61.53,44,74.48,97.22,94.61,51.78-22.91,97.22-33.08,97.22-94.61,0-19.3-14.9-69.63,9.61-106C218,62,180.39,54.66,143,54.66Z"/><path class="cls-6" d="M53.27,123.94c103-29,173,0,173,0l15-46-90-21-56,7-52,14Z"/><path class="cls-7" d="M53,84.94l1.44-.41"/><path class="cls-8" d="M62.18,82.5C88.5,75.93,166.06,59.88,220,82.68"/><path class="cls-7" d="M223.69,84.29l1.36.64"/><path class="cls-9" d="M71.38,105.6s79.33-20.67,139.33,0"/><path class="cls-10" d="M83.79,140.71c-17.08,85.56,34.41,92,57,92s77.26-8.44,64-92"/><path class="cls-11" d="M123.38,218.6c5.9-5,11.71-11.88,13.84-19.42a31.56,31.56,0,0,0,.77-8.69c0-3.21.34-6.73-.56-9.86-2.13-7.45-10.19-11.26-16.94-13.5a76.65,76.65,0,0,0-8.14-2.16c-1-.22-5.05-.4-5.63-1-.42-.46-.19-1.74-.38-2.32s-.92,9.18.05,4.91c.16-.7.23-1.42.4-2.13a21.39,21.39,0,0,1,1.32-3.77c2.4-5.28,6.76-9.44,11.61-12.5a50,50,0,0,1,37.79-6,34.41,34.41,0,0,1,25,22.1,43.74,43.74,0,0,1,1.78,6.28c.27,1.31.48,2.64.65,4,.25,2,.29,8.25.39.25,0,2.35-.06,4.72,0,7.07,0,1.45,0,1.92.07,0,.21-16.69-.87-34.55-16.22-44.64-11.74-7.72-27.45-8-40.4-3.39-11.14,3.95-22,12.44-22.59,25.11a97.67,97.67,0,0,0,.05,11.75c.21,2.72.16,3.22,3,3.73a84.7,84.7,0,0,1,10.68,2.58c7,2.24,15.57,6.15,17.62,14,.44,1.68.38,5.17.36-1.46,0-6.81.14-3.27-.28-1.75a33.91,33.91,0,0,1-1.52,4.64,38.83,38.83,0,0,1-5,8.08,54.34,54.34,0,0,1-7.7,8.16c-1.69,1.43,1.6,8.65,0,10Z"/></svg>