<svg id="Layer_2" data-name="Layer 2" xmlns="http://www.w3.org/2000/svg" xmlns:xlink="http://www.w3.org/1999/xlink" viewBox="0 0 280 280"><defs><style>.cls-1{fill:none;}.cls-2{fill:#fff;stroke:#014da1;stroke-miterlimit:10;stroke-width:10px;}.cls-3{clip-path:url(#clip-path);}.cls-4{fill:#da0312;}.cls-5{fill:#014da1;}</style><clipPath id="clip-path"><path class="cls-1" d="M139,249.09c-53.44-7.6-93.41-50.52-93.41-100.85,0-17.31-.06-52.3-.19-104h187v104C232.46,198.56,192.49,241.49,139,249.09Z"/></clipPath></defs><title>Artboard 14 copy 41</title><path class="cls-2" d="M203.52,22.22a245.38,245.38,0,0,0-129.18,0H23.39s0,8.08.05,20.34c.07,29.15.19,81.89.19,105.68,0,63.13,50.32,115.25,115.41,123,65.09-7.78,115.41-59.9,115.41-123v-126Z"/><g class="cls-3"><rect class="cls-4" x="42.09" y="121.71" width="33.12" height="100.53"/><rect class="cls-4" x="148.87" y="25.48" width="25" height="148.98" transform="translate(71.6 -67.29) rotate(30)"/><rect class="cls-5" x="199.46" y="115.99" width="45.69" height="157.57" transform="translate(127.17 -85.06) rotate(30)"/><rect class="cls-4" x="173.78" y="30.53" width="24.31" height="234.04" transform="translate(98.69 -73.2) rotate(30)"/><rect class="cls-5" x="42.09" y="45.22" width="98.26" height="76.5"/><rect class="cls-5" x="109.87" y="121.71" width="30.48" height="134.7"/></g></svg>