<svg id="Layer_2" data-name="Layer 2" xmlns="http://www.w3.org/2000/svg" xmlns:xlink="http://www.w3.org/1999/xlink" viewBox="0 0 280 280"><defs><style>.cls-1{fill:none;}.cls-2{fill:#cead00;}.cls-3{fill:#003158;}.cls-4{clip-path:url(#clip-path);}.cls-5{fill:#ffef00;}</style><clipPath id="clip-path"><polygon class="cls-1" points="240.82 124.99 234.48 98.57 210.86 98.57 210.86 65.28 188.51 46.26 140.26 65.85 92 46.26 69.65 65.28 69.65 98.57 46.03 98.57 39.69 124.99 72.13 144.45 46.81 169.76 140.26 263.41 230.96 174.82 217.67 149.51 240.82 124.99"/></clipPath></defs><title>Artboard 14 copy 56</title><polygon class="cls-2" points="162.62 0.8 162.62 10.93 151.24 10.93 151.24 0.8 132.87 0.8 132.87 10.93 121.48 10.93 121.48 0.8 102.92 0.8 115.58 71.68 164.94 71.68 177.59 0.8 162.62 0.8"/><rect class="cls-3" x="121.51" y="9.66" width="11.37" height="18.98"/><polygon class="cls-3" points="170.53 40.66 110.09 40.66 109.57 37.82 171.11 37.82 170.53 40.66"/><rect class="cls-3" x="110.43" y="50.32" width="61.62" height="2.84"/><rect class="cls-3" x="110.43" y="44.07" width="61.62" height="2.84"/><rect class="cls-3" x="151.24" y="9.66" width="11.38" height="18.98"/><polygon class="cls-3" points="38.77 169.75 62.94 145.58 33.18 127.72 41.54 92.87 63.96 92.87 63.96 62.65 90.94 39.69 140.26 59.7 189.57 39.69 216.55 62.65 216.55 92.87 238.97 92.87 247.08 126.65 224.6 150.46 237.97 175.93 140.2 271.42 38.77 169.75"/><path class="cls-2" d="M188.51,46.26l22.34,19V98.57h23.62L240.82,125l-23.15,24.52L231,174.82l-90.7,88.59L46.81,169.76l25.31-25.31L39.69,125,46,98.57H69.65V65.28L92,46.26l48.26,19.59,48.26-19.59m2.12-13.15-6.4,2.6-44,17.85-44-17.85-6.4-2.6-5.26,4.48-22.34,19-4,3.41V87.18H37.05L35,95.91l-6.34,26.42-2,8.13,7.17,4.3,19.93,12-15,15-8,8,8,8.05,93.44,93.65,8,8,8.06-7.87L238.92,183,245,177,241,169.53l-9.51-18.11L249.1,132.8l4.23-4.48-1.44-6-6.34-26.42-2.1-8.73H222.25V60l-4-3.41-22.34-19-5.26-4.48Z"/><circle class="cls-2" cx="103.77" cy="101.42" r="18.02"/><g class="cls-4"><rect class="cls-5" x="120.38" y="38.36" width="50.73" height="229.07" transform="translate(150.8 -58.28) rotate(45)"/></g></svg>