<svg id="Layer_2" data-name="Layer 2" xmlns="http://www.w3.org/2000/svg" xmlns:xlink="http://www.w3.org/1999/xlink" viewBox="0 0 280 280"><defs><style>.cls-1{fill:none;}.cls-2{fill:#fff;}.cls-3{fill:#ffbf00;}.cls-4{fill:#150a99;}.cls-5{clip-path:url(#clip-path);}.cls-6{fill:#d62c00;}</style><clipPath id="clip-path"><polygon class="cls-1" points="53.09 181.7 140 254.5 226.91 181.7 226.91 19.5 53.09 181.7"/></clipPath></defs><title>Artboard 14 copy 10</title><polygon class="cls-2" points="44.09 185.9 44.09 10.5 235.91 10.5 235.91 185.9 140 266.24 44.09 185.9"/><path class="cls-3" d="M226.91,19.5V181.7L140,254.5,53.09,181.7V19.5H226.91m18-18H35.09V190.1l6.44,5.4,86.91,72.8L140,278l11.56-9.68,86.91-72.8,6.44-5.4V1.5Z"/><path class="cls-4" d="M150.79,49.5l-67.7,63.17V49.5h67.7m76.12-30H53.09V181.7L226.91,19.5Z"/><g class="cls-5"><rect class="cls-6" x="84.53" y="-16.3" width="27.74" height="299.61"/><rect class="cls-6" x="141.85" y="-16.3" width="27.74" height="299.61"/><rect class="cls-6" x="199.17" y="-16.3" width="27.74" height="299.61"/></g></svg>