<svg id="Layer_2" data-name="Layer 2" xmlns="http://www.w3.org/2000/svg" viewBox="0 0 280 280"><defs><style>.cls-1{fill:#264b94;}.cls-2{fill:#ffba09;}.cls-3{fill:#f12e3c;}</style></defs><title>Artboard 14 copy 17</title><path class="cls-1" d="M219.6,76.77A294.57,294.57,0,0,1,140.4,270,294.57,294.57,0,0,1,61.21,76.77C72.49,84.85,101.43,91,140.4,91s67.91-6.15,79.19-14.23"/><polygon class="cls-2" points="140.4 45.3 121.39 58.53 128.09 36.35 109.63 22.36 132.8 21.89 140.4 0 148.01 21.89 171.18 22.36 152.71 36.35 159.42 58.53 140.4 45.3"/><path class="cls-3" d="M140.4,91c-39,0-67.91-6.15-79.19-14.23A294.57,294.57,0,0,0,140.4,270Z"/><path class="cls-2" d="M140.39,280l-4.85-3.83C65.27,220.66,55,135.91,53.36,77L53,62.12l12.51,8c43.42,27.94,117.35,22.94,149.61.19l12.81-9L227.45,77c-1.63,59.1-11.92,144-82.19,199.2ZM69.63,90.39c1.92,35.17,7.41,64.86,16.69,90.41,11.74,32.33,29.47,58.26,54.1,79.08,43.67-36.74,66.34-90.89,70.74-169.13-18.23,8.81-42,13.9-67.51,14.24C116,105.35,90.33,100.22,69.63,90.39Z"/><circle class="cls-2" cx="72.59" cy="159.89" r="37.64"/></svg>