<svg id="Layer_2" data-name="Layer 2" xmlns="http://www.w3.org/2000/svg" xmlns:xlink="http://www.w3.org/1999/xlink" viewBox="0 0 280 280"><defs><style>.cls-1{fill:none;}.cls-2{fill:#fff;}.cls-3{fill:#2a68c0;}.cls-4{fill:#f00544;}.cls-5{clip-path:url(#clip-path);}</style><clipPath id="clip-path"><circle class="cls-1" cx="140" cy="140" r="69.14"/></clipPath></defs><title>Artboard 14 copy 5</title><circle class="cls-2" cx="140" cy="140" r="134.59"/><path class="cls-3" d="M140,280C62.8,280,0,217.2,0,140S62.8,0,140,0,280,62.8,280,140,217.2,280,140,280Zm0-269.18A129.18,129.18,0,1,0,269.18,140,129.33,129.33,0,0,0,140,10.82Z"/><path class="cls-4" d="M140,56.4A83.6,83.6,0,1,1,56.41,140,83.69,83.69,0,0,1,140,56.4m0-32.46A116.06,116.06,0,1,0,256.06,140,116.06,116.06,0,0,0,140,23.94Z"/><g class="cls-5"><rect class="cls-3" x="124.25" y="-10.41" width="31.5" height="300.81" transform="matrix(-0.3, -0.95, 0.95, -0.3, 48.64, 315.65)"/><rect class="cls-3" x="95.18" y="-73.68" width="43.26" height="300.81" transform="translate(78.81 211.22) rotate(-107.52)"/><rect class="cls-3" x="212.95" y="34.35" width="43.26" height="300.81" transform="translate(129.01 464.08) rotate(-107.52)"/></g></svg>