<svg id="Layer_2" data-name="Layer 2" xmlns="http://www.w3.org/2000/svg" xmlns:xlink="http://www.w3.org/1999/xlink" viewBox="0 0 280 280"><defs><style>.cls-1{fill:none;}.cls-2{fill:#fff;}.cls-3{clip-path:url(#clip-path);}.cls-4{fill:#fa2f38;}</style><clipPath id="clip-path"><polygon class="cls-1" points="35.81 5.87 35.81 185.07 140 272.34 244.19 185.07 244.19 5.87 35.81 5.87"/></clipPath></defs><title>Artboard 14 copy 23</title><polygon class="cls-2" points="41.67 182.33 140 264.69 238.32 182.33 238.32 11.74 41.67 11.74 41.67 182.33"/><g class="cls-3"><rect x="107.13" y="-51.74" width="65.73" height="346.28"/><rect x="-3.66" y="-51.74" width="65.73" height="346.28"/><rect x="217.92" y="-51.74" width="65.73" height="346.28"/></g><polygon class="cls-4" points="97.48 72.82 97.48 140.43 140 176.04 182.51 140.43 182.51 72.82 97.48 72.82"/><rect class="cls-2" x="112.68" y="112.14" width="54.64" height="19.88"/><path d="M41.67,182.33,140,264.69l98.33-82.36V11.74H41.67ZM140,280,29.94,187.81V0H250.06V187.81Z"/></svg>