<svg id="Layer_2" data-name="Layer 2" xmlns="http://www.w3.org/2000/svg" xmlns:xlink="http://www.w3.org/1999/xlink" viewBox="0 0 280 280"><defs><style>.cls-1{fill:none;}.cls-2{fill:#fff;}.cls-3{fill:#231f20;}.cls-4{clip-path:url(#clip-path);}.cls-5{fill:#0077bd;}.cls-6{fill:#f1ba2c;}.cls-7{fill:#121212;}</style><clipPath id="clip-path"><circle class="cls-1" cx="140" cy="156.94" r="58.3"/></clipPath></defs><title>Artboard 14 copy 22</title><path class="cls-2" d="M140,271.52A114.58,114.58,0,0,1,90.2,53.74,32.86,32.86,0,0,1,120.32,7.91H160a32.85,32.85,0,0,1,30.07,45.93A114.6,114.6,0,0,1,140,271.52Z"/><path class="cls-3" d="M160,17a24,24,0,0,1,17.48,40.83,105.94,105.94,0,1,1-74.7-.21A23.63,23.63,0,0,1,96,41,24.1,24.1,0,0,1,120.32,17h40M160,0H120.32A41.1,41.1,0,0,0,79.06,41a40.3,40.3,0,0,0,.93,8.6,122.85,122.85,0,1,0,120.31,0,39.18,39.18,0,0,0,1-8.64A41.1,41.1,0,0,0,160,0Z"/><path class="cls-2" d="M140,229.4a72.45,72.45,0,1,1,72.45-72.45A72.53,72.53,0,0,1,140,229.4Z"/><path class="cls-3" d="M140,93a64,64,0,1,1-64,64,64,64,0,0,1,64-64m0-17a80.93,80.93,0,1,0,80.93,80.93A81,81,0,0,0,140,76Z"/><g class="cls-4"><rect class="cls-5" x="66.07" y="26.43" width="25.97" height="248.77" transform="translate(129.79 -11.73) rotate(45)"/><rect x="84.44" y="44.79" width="25.97" height="248.77" transform="translate(148.16 -19.34) rotate(45)"/><rect class="cls-5" x="102.8" y="63.15" width="25.97" height="248.77" transform="translate(166.52 -26.94) rotate(45)"/><rect x="121.16" y="81.51" width="25.97" height="248.77" transform="translate(184.88 -34.55) rotate(45)"/><rect class="cls-5" x="139.52" y="99.87" width="25.97" height="248.77" transform="translate(203.24 -42.15) rotate(45)"/></g><path class="cls-6" d="M45.09,172.68a97.7,97.7,0,0,1-1-14A96.35,96.35,0,0,1,95.64,73.44l2.64,5a90.72,90.72,0,0,0-48.54,80.25,92.15,92.15,0,0,0,.95,13.19Z"/><path class="cls-6" d="M234.91,172.78l-5.59-.81a94.14,94.14,0,0,0,.95-13.29,90.72,90.72,0,0,0-48.54-80.25l2.64-5a96.35,96.35,0,0,1,51.55,85.24A99.85,99.85,0,0,1,234.91,172.78Z"/><rect class="cls-7" x="159.21" y="27.13" width="11.3" height="35.86"/><rect class="cls-7" x="135.84" y="27.13" width="11.3" height="35.86"/><rect class="cls-7" x="112.46" y="27.13" width="11.3" height="35.86"/></svg>