<svg id="Layer_2" data-name="Layer 2" xmlns="http://www.w3.org/2000/svg" viewBox="0 0 280 280"><defs><style>.cls-1{fill:#bde4f7;}.cls-2{fill:#ffed00;}.cls-3,.cls-4{fill:none;stroke-miterlimit:10;}.cls-3{stroke:#6e0039;stroke-width:10px;}.cls-4{stroke:#000;stroke-width:15px;}</style></defs><title>Artboard 14 copy 36</title><path class="cls-1" d="M140.12,263.19C79.94,254.87,34.71,203,34.71,142c0-28.86-.16-98.43-.22-124.44h211V142C245.53,203,200.31,254.87,140.12,263.19Z"/><path class="cls-2" d="M235.53,27.59V142a112.35,112.35,0,0,1-95.41,111.06A112.35,112.35,0,0,1,44.71,142c0-25.7-.12-83.67-.19-114.44h191m20-20H24.47S24.71,106,24.71,142A132.34,132.34,0,0,0,140.12,273.27,132.34,132.34,0,0,0,255.53,142V7.59Z"/><path class="cls-2" d="M92,95.2s.1,40.9.1,55.9a55,55,0,0,0,48,54.57,55,55,0,0,0,48-54.57V95.2Z"/><polyline class="cls-3" points="102 176 140 130 176 176"/><path class="cls-4" d="M211,157c0,36.45-31.79,66-71,66s-71-29.55-71-66"/><path d="M102.18,125.22,111,141l8.82-15.78L111,109.44Z"/><path d="M160.18,125.22,169,141l8.82-15.78L169,109.44Z"/><path d="M130.18,174.22,139,190l8.82-15.78L139,158.44Z"/><polygon class="cls-1" points="136.36 57.22 139 52.5 141.64 57.22 139 61.95 136.36 57.22"/><polygon class="cls-2" points="139 32 124.9 57.22 139 82.44 153.1 57.22 139 32 139 32"/><rect x="92.22" y="73.31" width="95.91" height="27.63"/><circle class="cls-1" cx="110.5" cy="87.5" r="6.73"/><path class="cls-2" d="M110.5,80.77a6.73,6.73,0,1,0,6.73,6.73,6.73,6.73,0,0,0-6.73-6.73Z"/><circle class="cls-1" cx="139.83" cy="87.5" r="6.73"/><path class="cls-2" d="M139.83,80.77a6.73,6.73,0,1,0,6.73,6.73,6.73,6.73,0,0,0-6.73-6.73Z"/><circle class="cls-1" cx="169.17" cy="87.5" r="6.73"/><path class="cls-2" d="M169.17,80.77a6.73,6.73,0,1,0,6.73,6.73,6.73,6.73,0,0,0-6.73-6.73Z"/></svg>