<svg id="Layer_2" data-name="Layer 2" xmlns="http://www.w3.org/2000/svg" xmlns:xlink="http://www.w3.org/1999/xlink" viewBox="0 0 280 280"><defs><style>.cls-1{fill:none;}.cls-2{fill:#fff;}.cls-3{fill:#008847;}.cls-4{clip-path:url(#clip-path);}</style><clipPath id="clip-path"><path class="cls-1" d="M134.21,103.45a31.67,31.67,0,1,1-31.67-31.67A31.67,31.67,0,0,1,134.21,103.45Zm43.26-31.67a31.67,31.67,0,1,0,31.67,31.67A31.67,31.67,0,0,0,177.46,71.78Zm-74.93,73.1a31.67,31.67,0,1,0,31.67,31.67A31.67,31.67,0,0,0,102.54,144.88Zm74.93,0a31.67,31.67,0,1,0,31.67,31.67A31.67,31.67,0,0,0,177.46,144.88Z"/></clipPath></defs><title>Artboard 14 copy 25</title><path class="cls-2" d="M140,271.39C67.55,271.39,8.61,212.45,8.61,140S67.55,8.61,140,8.61,271.39,67.55,271.39,140,212.45,271.39,140,271.39Z"/><path class="cls-3" d="M140,17.21A122.79,122.79,0,1,1,17.21,140,122.79,122.79,0,0,1,140,17.21M140,0A140,140,0,0,0,41,239,140,140,0,0,0,239,41,139.08,139.08,0,0,0,140,0Z"/><path class="cls-2" d="M140,239.84A99.84,99.84,0,1,1,239.84,140,99.95,99.95,0,0,1,140,239.84Z"/><path class="cls-3" d="M140,45.9A94.1,94.1,0,1,1,45.9,140,94.1,94.1,0,0,1,140,45.9m0-11.48A105.57,105.57,0,1,0,245.57,140,105.69,105.69,0,0,0,140,34.43Z"/><g class="cls-4"><rect class="cls-3" x="-30.66" y="74.39" width="192.26" height="5.74" transform="translate(-35.46 68.92) rotate(-45)"/><rect class="cls-3" x="-19.97" y="85.09" width="192.26" height="5.74" transform="translate(-39.89 79.62) rotate(-45)"/><rect class="cls-3" x="-9.27" y="95.79" width="192.26" height="5.74" transform="translate(-44.32 90.32) rotate(-45)"/><rect class="cls-3" x="1.43" y="106.48" width="192.26" height="5.74" transform="translate(-48.75 101.01) rotate(-45)"/><rect class="cls-3" x="12.13" y="117.18" width="192.26" height="5.74" transform="translate(-53.18 111.71) rotate(-45)"/><rect class="cls-3" x="22.83" y="127.88" width="192.26" height="5.74" transform="translate(-57.61 122.41) rotate(-45)"/><rect class="cls-3" x="33.52" y="138.58" width="192.26" height="5.74" transform="translate(-62.04 133.11) rotate(-45)"/><rect class="cls-3" x="44.22" y="149.27" width="192.26" height="5.74" transform="translate(-66.47 143.8) rotate(-45)"/><rect class="cls-3" x="54.92" y="159.97" width="192.26" height="5.74" transform="translate(-70.9 154.5) rotate(-45)"/><rect class="cls-3" x="65.62" y="170.67" width="192.26" height="5.74" transform="translate(-75.34 165.2) rotate(-45)"/><rect class="cls-3" x="76.31" y="181.37" width="192.26" height="5.74" transform="translate(-79.77 175.9) rotate(-45)"/><rect class="cls-3" x="87.01" y="192.06" width="192.26" height="5.74" transform="translate(-84.2 186.59) rotate(-45)"/><rect class="cls-3" x="97.71" y="202.76" width="192.26" height="5.74" transform="translate(-88.63 197.29) rotate(-45)"/><rect class="cls-3" x="108.41" y="213.46" width="192.26" height="5.74" transform="translate(-93.06 207.99) rotate(-45)"/></g></svg>