<svg id="Layer_2" data-name="Layer 2" xmlns="http://www.w3.org/2000/svg" viewBox="0 0 280 280"><defs><style>.cls-1{fill:#004599;}.cls-2{fill:#e49b00;}.cls-3{fill:#fff;}.cls-4{fill:#ff0008;}</style></defs><title>Artboard 14 copy 47</title><path class="cls-1" d="M140,269.76A129.76,129.76,0,1,1,269.76,140,129.91,129.91,0,0,1,140,269.76Z"/><path class="cls-2" d="M140,17.21A122.79,122.79,0,1,1,17.21,140,122.79,122.79,0,0,1,140,17.21m0-14A136.74,136.74,0,0,0,43.31,236.69,136.74,136.74,0,0,0,236.69,43.31,135.84,135.84,0,0,0,140,3.26Z"/><circle class="cls-3" cx="140" cy="140" r="78.14"/><circle class="cls-4" cx="233.02" cy="100.3" r="10.86"/><circle class="cls-4" cx="233.02" cy="181.24" r="10.86"/><circle class="cls-4" cx="47.91" cy="100.3" r="10.86"/><circle class="cls-4" cx="47.91" cy="181.24" r="10.86"/><polygon class="cls-1" points="161.4 169.91 132.19 169.91 132.19 110.24 149.3 85.12 172.25 93.18 162.32 110.24 161.4 169.91"/><rect class="cls-1" x="99.59" y="98.98" width="14.8" height="75.04"/><polygon class="cls-1" points="129.92 202.78 112.43 193.43 137.27 153.98 154.76 163.33 129.92 202.78"/><polygon class="cls-1" points="156.43 202.64 174.86 194.3 152.52 153.06 134.09 161.41 156.43 202.64"/><rect class="cls-1" x="172.17" y="115.82" width="14.19" height="48.24"/><rect class="cls-1" x="121.12" y="119.44" width="11.67" height="56.83" transform="translate(178.72 -40.03) rotate(56.05)"/><rect class="cls-1" x="121.05" y="102.1" width="11.76" height="56.83" transform="translate(306.08 98.1) rotate(123.95)"/><path class="cls-3" d="M74.83,73.9,65,64a108.53,108.53,0,0,1,8.89-8L82.57,67A94.44,94.44,0,0,0,74.83,73.9Zm131.17-1a94.71,94.71,0,0,0-7.85-6.81l8.55-11a108.44,108.44,0,0,1,9,7.82ZM92.49,60,85.25,48.1a107.47,107.47,0,0,1,10.53-5.61l5.87,12.66A93.41,93.41,0,0,0,92.49,60Zm95.63-.75a93.43,93.43,0,0,0-9.23-4.74l5.67-12.75a107.33,107.33,0,0,1,10.62,5.45Zm-75.19-8.5-4.17-13.32a107.35,107.35,0,0,1,11.57-2.93L123,48.23A93.14,93.14,0,0,0,112.93,50.78Zm54.6-.43A93.52,93.52,0,0,0,157.43,48l2.45-13.74A107.47,107.47,0,0,1,171.49,37ZM135,46.7l-.87-13.93c2.24-.14,4.52-.21,6.76-.21h0c1.7,0,3.42,0,5.11.12l-.65,13.94c-1.47-.07-3-.1-4.46-.1h0C138.94,46.52,137,46.58,135,46.7Z"/><path class="cls-3" d="M144.14,243.47q-1.53,0-3,0l.27-9.3c2.35.07,4.74,0,7.1-.06l.41,9.29C147.31,243.43,145.71,243.47,144.14,243.47Zm-10.82-.55c-2.57-.26-5.17-.63-7.71-1.08l1.63-9.16c2.32.41,4.69.74,7,1Zm23.31-.18-1.09-9.24c2.34-.28,4.7-.65,7-1.09l1.78,9.13C161.79,242,159.2,242.43,156.63,242.73ZM118,240.19c-2.51-.64-5-1.39-7.47-2.21l3-8.82c2.23.75,4.52,1.43,6.8,2Zm53.9-.42-2.45-9c2.27-.62,4.54-1.33,6.76-2.12l3.11,8.77C176.88,238.3,174.38,239.09,171.89,239.77Zm-68.65-4.55c-2.39-1-4.76-2.12-7.06-3.3l4.25-8.27c2.09,1.07,4.25,2.08,6.43,3Zm83.3-.65-3.76-8.51c2.16-1,4.3-2,6.38-3.1l4.38,8.21C191.27,232.37,188.92,233.52,186.55,234.56ZM89.4,228.11c-2.21-1.35-4.39-2.8-6.49-4.3l5.43-7.55c1.91,1.37,3.9,2.69,5.91,3.92Zm110.87-.86-5-7.86c2-1.26,4-2.61,5.85-4l5.54,7.47C204.62,224.38,202.46,225.86,200.28,227.24ZM76.76,219c-2-1.66-3.93-3.41-5.78-5.21l6.48-6.67c1.69,1.64,3.46,3.23,5.27,4.75Zm136-1.06-6.08-7c1.79-1.54,3.53-3.16,5.2-4.83l6.58,6.58C216.64,214.51,214.73,216.29,212.77,218Z"/><path class="cls-3" d="M106.77,117.41a10.6,10.6,0,1,1,10.6-10.6A10.61,10.61,0,0,1,106.77,117.41Z"/><path class="cls-1" d="M106.77,102.72a4.09,4.09,0,1,1-4.09,4.09,4.09,4.09,0,0,1,4.09-4.09m0-13a17.11,17.11,0,1,0,17.11,17.11A17.11,17.11,0,0,0,106.77,89.7Z"/><polygon class="cls-4" points="167.06 105.81 173.57 104.81 178.6 109.43 171.73 110.23 167.06 105.81"/><polygon class="cls-3" points="130.08 164.81 148.06 142.79 147.75 135.35 128.22 154.57 130.08 164.81"/></svg>