<svg id="Layer_2" data-name="Layer 2" xmlns="http://www.w3.org/2000/svg" viewBox="0 0 280 280"><defs><style>.cls-1{fill:#00205f;}.cls-2{fill:#e20029;}.cls-3{fill:#fff;}.cls-4{fill:#a7a9ac;}.cls-5{fill:none;}</style></defs><title>Artboard 14 copy 55</title><path class="cls-1" d="M156.41,140l79.15,79.15V199.92a112.72,112.72,0,0,0,0-119.85V60.85Z"/><path class="cls-2" d="M241,232.33,148.69,140,241,47.67V78.52a118.19,118.19,0,0,1,0,123ZM164.13,140l66,66v-7.62l.84-1.33a107.27,107.27,0,0,0,0-114l-.84-1.33V74Z"/><path class="cls-1" d="M140,123.59l79.15-79.15H199.92a112.72,112.72,0,0,0-119.85,0H60.85Z"/><path class="cls-2" d="M140,131.31,47.67,39H78.52a118.18,118.18,0,0,1,123,0h30.86ZM74,49.9l66,66,66-66h-7.62L197,49.06a107.26,107.26,0,0,0-114,0l-1.33.84Z"/><path class="cls-1" d="M123.59,140,44.44,60.85V80.08a112.72,112.72,0,0,0,0,119.85v19.23Z"/><path class="cls-2" d="M39,232.33V201.48a118.19,118.19,0,0,1,0-123V47.66L131.31,140ZM49.9,74v7.62L49.06,83a107.26,107.26,0,0,0,0,114l.84,1.33V206l66-66Z"/><path class="cls-1" d="M140,156.41,60.85,235.56H80.08a112.73,112.73,0,0,0,119.84,0h19.23Z"/><path class="cls-2" d="M140,258.27A117.93,117.93,0,0,1,78.52,241H47.67L140,148.69,232.33,241H201.48A117.93,117.93,0,0,1,140,258.27ZM74,230.1h7.62l1.33.84a107.27,107.27,0,0,0,114,0l1.33-.84H206l-66-66Z"/><polygon class="cls-3" points="140 58.23 160.44 104.59 210.81 99.12 180.88 140 210.81 180.88 160.44 175.41 140 221.77 119.56 175.41 69.19 180.88 99.12 140 69.19 99.12 119.56 104.59 140 58.23"/><circle class="cls-4" cx="139.29" cy="138.55" r="63.71"/><path class="cls-3" d="M139.29,209.08a70.53,70.53,0,1,1,70.53-70.53A70.61,70.61,0,0,1,139.29,209.08Zm0-127.42a56.88,56.88,0,1,0,56.88,56.88A56.95,56.95,0,0,0,139.29,81.66Z"/><path class="cls-2" d="M140.36,178.56a38.56,38.56,0,1,1,33.86-57l-18,9.81a18.08,18.08,0,1,0,0,17.29l18,9.81A38.56,38.56,0,0,1,140.36,178.56Z"/><polygon class="cls-5" points="140.15 96.6 165.15 78.3 161.8 109.1 190.15 121.6 161.8 134.1 165.15 164.9 140.15 146.6 115.15 164.9 118.5 134.1 90.15 121.6 118.5 109.1 115.15 78.3 140.15 96.6"/></svg>