<svg id="Layer_2" data-name="Layer 2" xmlns="http://www.w3.org/2000/svg" xmlns:xlink="http://www.w3.org/1999/xlink" viewBox="0 0 280 280"><defs><style>.cls-1,.cls-3,.cls-4,.cls-5,.cls-7{fill:none;}.cls-2,.cls-7{stroke:#fff200;stroke-width:10px;}.cls-2,.cls-3,.cls-4,.cls-5,.cls-7{stroke-miterlimit:10;}.cls-3,.cls-4,.cls-5{stroke:#fff;stroke-width:23px;}.cls-4{stroke-dasharray:6.03 11.05;}.cls-5{stroke-dasharray:6 11;}.cls-6{clip-path:url(#clip-path);}.cls-8{fill:#fff200;}</style><clipPath id="clip-path"><circle class="cls-1" cx="140" cy="134.94" r="51.73"/></clipPath></defs><title>Artboard 14 copy 44</title><circle class="cls-2" cx="140" cy="134.94" r="129"/><circle class="cls-2" cx="140" cy="134.94" r="65.67"/><path class="cls-3" d="M49,104.21q.48-1.42,1-2.83"/><path class="cls-4" d="M54.49,91.27a96,96,0,0,1,173.45,5.11"/><path class="cls-3" d="M230,101.51q.52,1.4,1,2.83"/><path class="cls-5" d="M220.79,186.8a96,96,0,0,1-164.58-5"/><g class="cls-6"><line class="cls-7" x1="258.22" y1="14.94" x2="1.72" y2="271.44"/><line class="cls-7" x1="258.22" y1="-15.06" x2="1.72" y2="241.44"/><line class="cls-7" x1="258.22" y1="-45.06" x2="1.72" y2="211.44"/></g><g class="cls-6"><rect class="cls-8" x="144.88" y="139.6" width="25.67" height="25.67"/><rect class="cls-8" x="170.55" y="113.94" width="25.67" height="25.67"/><rect class="cls-8" x="119.22" y="165.27" width="25.67" height="25.67"/><rect class="cls-8" x="170.55" y="165.27" width="25.67" height="25.67"/></g></svg>