<svg id="Layer_2" data-name="Layer 2" xmlns="http://www.w3.org/2000/svg" xmlns:xlink="http://www.w3.org/1999/xlink" viewBox="0 0 280 280"><defs><style>.cls-1{fill:none;}.cls-2{fill:#dc0e15;}.cls-3{fill:#ffba00;}.cls-4{clip-path:url(#clip-path);}.cls-5{fill:#161413;}.cls-6{fill:#fff;}</style><clipPath id="clip-path"><path class="cls-1" d="M78.79,106.25a119.65,119.65,0,0,0-6.94,40.3c0,48.28,28.31,89.48,68.15,105.72,39.84-16.24,68.15-57.44,68.15-105.72a119.65,119.65,0,0,0-6.94-40.3,100.41,100.41,0,0,0-122.43,0Z"/></clipPath></defs><title>Artboard 14 copy 9</title><path class="cls-2" d="M221.47,93.69A140.12,140.12,0,0,0,158.87,69l-1.94-6.41,25.39-19.25-31.86-.65L140,12.61l-10.46,30.1-31.86.65,25.39,19.25L121.13,69a140.12,140.12,0,0,0-62.6,24.67A141,141,0,0,0,140,275.57,141,141,0,0,0,221.47,93.69Z"/><path class="cls-3" d="M140,280l-1.48-.56A145.11,145.11,0,0,1,54.67,92.21L55.11,91l1-.73a145.07,145.07,0,0,1,61.8-25l.34-1.13L85.69,39.46l40.89-.83L140,0l13.43,38.63,40.89.83L161.72,64.17l.34,1.13a145.07,145.07,0,0,1,61.8,25l1,.73.45,1.17a145.09,145.09,0,0,1-83.86,187.22ZM62,96.34a136.81,136.81,0,0,0,78,174.79A136.83,136.83,0,0,0,218,96.34a136.71,136.71,0,0,0-59.72-23.22l-2.64-.35L152.13,61l18.2-13.8-22.83-.47L140,25.22l-7.5,21.57-22.83.47L127.87,61l-3.55,11.72-2.64.35A136.71,136.71,0,0,0,62,96.34Z"/><g class="cls-4"><rect class="cls-5" x="83.85" y="58.31" width="24.84" height="211.86"/><rect class="cls-5" x="127.58" y="58.31" width="24.84" height="211.86"/><rect class="cls-5" x="171.31" y="58.31" width="24.84" height="211.86"/></g><circle class="cls-6" cx="140" cy="214.05" r="23.15"/><circle class="cls-5" cx="140" cy="214.05" r="10.69"/><polygon class="cls-6" points="215.81 157.75 64.19 157.75 74.44 105.45 205.56 105.45 215.81 157.75"/><polygon class="cls-5" points="215.81 157.75 64.19 157.75 74.44 174.08 205.56 174.08 215.81 157.75"/><rect class="cls-6" x="87.75" y="151.8" width="12.83" height="18.46"/><polygon class="cls-5" points="87.75 145.63 81.34 145.63 87.75 105.45 94.17 105.45 87.75 145.63"/><rect class="cls-5" x="115.25" y="119.87" width="7.33" height="24.61"/><polygon class="cls-5" points="200.19 136.24 192.86 136.24 188.28 115.8 195.61 115.8 200.19 136.24"/><rect class="cls-5" x="118.92" y="128.1" width="21.08" height="8.14"/><polygon class="cls-5" points="171.09 105.45 165.36 131.6 181.25 157.95 171.09 105.45"/><polygon class="cls-5" points="148.75 106.02 148.75 127.95 156.38 105.45 148.75 106.02"/></svg>