<svg id="Layer_2" data-name="Layer 2" xmlns="http://www.w3.org/2000/svg" viewBox="0 0 280 280"><defs><style>.cls-1{fill:#ffba09;}.cls-2{fill:#0b6dc4;}.cls-3{fill:#fff;}</style></defs><title>Artboard 14 copy 19</title><polygon class="cls-1" points="96.43 34.58 81.92 44.69 87.04 27.75 72.94 17.07 90.63 16.71 96.43 0 102.24 16.71 119.93 17.07 105.83 27.75 110.95 44.69 96.43 34.58"/><polygon class="cls-1" points="183.57 34.58 169.05 44.69 174.17 27.75 160.07 17.07 177.76 16.71 183.57 0 189.37 16.71 207.06 17.07 192.96 27.75 198.09 44.69 183.57 34.58"/><polygon class="cls-2" points="140 280 66.14 151.22 140 22.44 213.86 151.22 140 280"/><path class="cls-3" d="M140,225.83,98.3,151.22,140,76.61l41.7,74.61Zm-20.56-74.61L140,188l20.56-36.78L140,114.44Z"/></svg>