<svg id="Layer_2" data-name="Layer 2" xmlns="http://www.w3.org/2000/svg" viewBox="0 0 280 280"><defs><style>.cls-1{fill:#fee300;}.cls-2{fill:#231f20;}</style></defs><title>Artboard 14 copy 11</title><path class="cls-1" d="M140,271.39C67.55,271.39,8.61,212.45,8.61,140S67.55,8.61,140,8.61,271.39,67.55,271.39,140,212.45,271.39,140,271.39Z"/><path class="cls-2" d="M140,17.21A122.79,122.79,0,1,1,17.21,140,122.79,122.79,0,0,1,140,17.21M140,0A140,140,0,0,0,41,239,140,140,0,0,0,239,41,139.08,139.08,0,0,0,140,0Z"/><path d="M145.16,235.82H111.89V193.36h33.28Zm-23-10.33h12.62V203.69H122.21Z"/><path d="M168.11,235.82H134.84V193.36h33.28Zm-23-10.33h12.62V203.69H145.16Z"/><path d="M110.53,144.74H48.46V92.68h62.07ZM65.68,127.53H93.32V109.89H65.68Z"/><path d="M110.53,179.59H48.46V127.53h62.07ZM65.68,162.38H93.32V144.74H65.68Z"/><path d="M231.54,144.74H169.05V92.68h62.48Zm-45.27-17.21h28.05V109.89H186.27Z"/><path d="M231.54,179.59H169.05V127.53h62.48Zm-45.27-17.21h28.05V144.74H186.27Z"/><polygon points="132.07 127.65 96.61 41.59 114.65 34.15 140.8 97.63 165.27 34.35 183.47 41.39 150.19 127.45 132.07 127.65"/></svg>