<svg id="Layer_2" data-name="Layer 2" xmlns="http://www.w3.org/2000/svg" viewBox="0 0 280 280"><defs><style>.cls-1{fill:#1f438d;}.cls-2{fill:#fff;}</style></defs><title>Artboard 14 copy 48</title><path class="cls-1" d="M245.1,181.84c-16.24,42-58.24,59.27-94,61.7-2.9,2.11-6,4.33-8.66,6.25-2.66-1.94-5.72-4.1-8.71-6.16-19.1-1.09-37.41-4.91-53.51-13.48-20.68-11-37.65-27.52-46.85-47.76l-21.47,9.76c11.37,25,31.93,45.35,57.23,58.82,21.77,11.59,46.8,16.48,72.67,16.48q2.4,0,4.81-.07c56.58-1.64,102.74-31.16,120.47-77Z"/><path class="cls-1" d="M138,252.17c-7.73-5.65-19.06-13.2-21.61-14.9C109.27,236.06,52.35,225,39,179.19,31.86,158,43.72,104.84,52.37,81c4-11.08-1.24-17.92-7.9-26.58C40,48.66,35,42.09,32.85,33.58l-.5-2L72.84,4.14l1.63,2.54C77,10.55,86.36,23.17,102.8,23.17h0c11.08,0,22.78-5.73,34.79-17l2-1.9,2,1.9c11.13,10.46,22.67,15.76,34.3,15.76,15.17,0,26-9,29.63-15.12l1.58-2.67,40.12,26.56-.49,2c-2.1,8.61-7.09,15.22-11.5,21.05-6.58,8.71-11.78,15.59-7.61,26.79,8.86,23.81,21.76,77.11,12.95,98.38-19.25,46.45-72.7,57.92-79.85,59.25-2.42,1.79-12.18,9-19.27,14l-1.73,1.23Z"/><path class="cls-2" d="M208.1,8.27,243.91,32C239,52.17,217,60.45,224.9,81.55c9.73,26.13,21,77,13,96.23-19.82,47.81-78.32,57.6-78.32,57.6S148,244,139.79,249.79c-8.87-6.49-22.26-15.32-22.26-15.32S55.36,225,41.78,178.31C35.09,158.48,46.09,107,55.14,82c7.59-20.92-14.46-29.26-19.43-49.16L72,8.27c5.7,8.85,16.41,17.84,30.81,17.84,10.49,0,22.93-4.77,36.81-17.84,13,12.24,25.55,16.56,36.32,16.56,15.83,0,27.88-9.33,32.17-16.56M206.19-.06,203,5.27c-3.13,5.29-13.26,13.68-27.1,13.68-10.86,0-21.72-5-32.28-15l-4-3.8-4,3.8C124.13,14.76,113.1,20.22,102.8,20.22c-14.95,0-23.57-11.59-25.85-15.14L73.68,0l-5,3.39L32.4,28,29,30.3l1,4c2.28,9.11,7.52,15.93,12.15,21.95C49.32,65.58,52.91,70.88,49.6,80c-8.25,22.73-21.08,77.11-13.44,100.05,6.06,20.7,22,37.69,46.06,49.15a139.25,139.25,0,0,0,33.09,10.85c3.29,2.18,13.75,9.18,21,14.48l3.43,2.51,3.47-2.46c6.67-4.74,15.7-11.39,18.79-13.68a137,137,0,0,0,31.91-11.13c23.68-11.66,40.77-28.87,49.43-49.76,9.13-22-3.9-76.35-12.91-100.54-3.45-9.26.1-14.59,7.2-24,4.58-6.06,9.77-12.93,12-22.13l1-4-3.45-2.29L211.35,3.36,206.19-.06Z"/><path class="cls-2" d="M165.6,156.21,112.36,136V93L140.44,41.1l25.16,52Zm-47.35-24.32,41.45,15.77V94.43L140.15,54,118.25,94.5Z"/><path class="cls-2" d="M88.4,81.47a13.74,13.74,0,0,1-2.85-.92L88,75.17a7.8,7.8,0,0,0,1.62.53Zm6-.19-1.54-5.69A8.15,8.15,0,0,0,94.49,75l2.7,5.24A14.06,14.06,0,0,1,94.42,81.28ZM80.85,77.33a21.58,21.58,0,0,1-1.85-2l4.58-3.71a15.69,15.69,0,0,0,1.34,1.46Zm20.84-.54-4.23-4.11a16.44,16.44,0,0,0,1.3-1.52l4.7,3.56A22.21,22.21,0,0,1,101.69,76.79Zm-25.57-5.9c-.39-.75-.77-1.54-1.11-2.35l5.43-2.31c.28.67.59,1.31.91,1.91Zm30.09-.65-5.28-2.62c.31-.62.6-1.27.87-1.94l5.47,2.2C106.94,68.69,106.59,69.49,106.21,70.25ZM73.34,63.71q-.33-1.2-.59-2.47L78.52,60q.22,1.08.51,2.12Zm35.5-.68-5.72-1.45q.26-1,.47-2.13l5.79,1.1Q109.15,61.81,108.84,63ZM72,56.24q-.11-1.24-.16-2.51l5.89-.22q0,1.11.14,2.2Zm38-.7-5.88-.44q.08-1.09.11-2.2l5.89.14Q110.14,54.31,110.05,55.55ZM77.81,49.11l-5.88-.4q.09-1.27.24-2.51l5.85.72Q77.89,48,77.81,49.11Zm26.34-.61q-.07-.8-.16-1.58l5.85-.71c.07.6.14,1.2.19,1.81Z"/><path class="cls-2" d="M189.14,81.47a13.74,13.74,0,0,1-2.85-.92l2.41-5.38a7.8,7.8,0,0,0,1.62.53Zm6-.19-1.54-5.69a8.15,8.15,0,0,0,1.61-.63l2.7,5.24A14.06,14.06,0,0,1,195.16,81.28Zm-13.57-3.95a21.58,21.58,0,0,1-1.85-2l4.58-3.71a15.69,15.69,0,0,0,1.34,1.46Zm20.84-.54-4.23-4.11a16.44,16.44,0,0,0,1.3-1.52l4.7,3.56A22.21,22.21,0,0,1,202.43,76.79Zm-25.57-5.9c-.39-.75-.77-1.54-1.11-2.35l5.43-2.31c.28.67.59,1.31.91,1.91Zm30.09-.65-5.28-2.62c.31-.62.6-1.27.87-1.94l5.47,2.2C207.68,68.69,207.32,69.49,206.95,70.25Zm-32.87-6.54q-.33-1.2-.59-2.47l5.77-1.2q.22,1.08.51,2.12Zm35.5-.68-5.72-1.45q.26-1,.47-2.13l5.79,1.1Q209.89,61.81,209.58,63Zm-36.83-6.78q-.11-1.24-.16-2.51l5.89-.22q0,1.11.14,2.2Zm38-.7-5.88-.44Q205,54,205,52.9l5.89.14Q210.88,54.31,210.79,55.55Zm-32.24-6.44-5.88-.4q.09-1.27.24-2.51l5.85.72Q178.62,48,178.55,49.11Zm26.34-.61c0-.53-.1-1.06-.16-1.58l5.85-.71c.07.6.14,1.2.19,1.81Z"/><rect class="cls-2" x="114.31" y="89.99" width="48.34" height="5.9"/><path class="cls-2" d="M143.2,110.33v10.91h-9.14V110.33h9.14m5.9-5.9H128.17v22.7H149.1v-22.7Z"/><path class="cls-2" d="M206.34,192.59l-5.62,0L200.8,169l5.62,0Zm-13.87,0-5.9,0,.07-23.58,5.9,0Zm-14.15,0-5.9,0,.08-23.58,5.9,0Zm-14.15,0-5.9,0,.08-23.58,5.9,0Zm-14.15,0-5.9,0,.07-23.58,5.9,0Zm-14.15,0-5.9,0,.08-23.58,5.9,0Zm-14.15,0-5.9,0,.08-23.58,5.9,0Zm-14.15,0-5.9,0,.07-23.58,5.9,0Zm-14.15,0-5.9,0,.08-23.58,5.9,0Zm-14.15,0-5.9,0,.08-23.58,5.9,0Z"/><path class="cls-2" d="M159.3,218.86l-4.71-.13.4-14.14,4.71.13Zm-10.61-.3-4.72-.13.4-14.14,4.72.13Zm-10.61-.3-4.71-.13.4-14.14,4.71.13Zm-10.61-.3-4.71-.13.4-14.14,4.71.13Z"/><path class="cls-1" d="M161.11,263.67s-11.61,8.6-19.78,14.41c-8.87-6.49-22.26-15.32-22.26-15.32Z"/></svg>