<svg id="Layer_2" data-name="Layer 2" xmlns="http://www.w3.org/2000/svg" xmlns:xlink="http://www.w3.org/1999/xlink" viewBox="0 0 280 280"><defs><style>.cls-1{fill:none;}.cls-2{fill:#ffbf00;}.cls-3{clip-path:url(#clip-path);}.cls-4{fill:#004b9a;}.cls-5{fill:#a70043;}.cls-6{fill:#fff;}</style><clipPath id="clip-path"><circle class="cls-1" cx="140" cy="140" r="140"/></clipPath></defs><title>Artboard 14 copy 3</title><rect class="cls-2" y="7.34" width="280" height="127.4"/><g class="cls-3"><rect class="cls-4" x="-1.7" y="134.22" width="41.14" height="174.39"/><rect class="cls-5" x="38.68" y="134.22" width="41.14" height="174.39"/><rect class="cls-4" x="79.06" y="134.22" width="41.14" height="174.39"/><rect class="cls-5" x="119.43" y="134.22" width="41.14" height="174.39"/><rect class="cls-4" x="159.81" y="134.22" width="41.14" height="174.39"/><rect class="cls-4" x="240.56" y="134.22" width="41.14" height="174.39"/><rect class="cls-5" x="200.18" y="134.22" width="41.14" height="174.39"/></g><circle class="cls-2" cx="140" cy="203.7" r="40.54"/><rect class="cls-6" x="14.5" y="23.59" width="119.68" height="95.15"/><rect class="cls-5" x="59.86" y="11.32" width="28.97" height="119.68" transform="translate(145.5 -3.18) rotate(90)"/><rect class="cls-5" x="59.81" y="23.59" width="29.05" height="95.15"/><rect class="cls-5" x="151.4" y="23.81" width="16.87" height="95.15"/><rect class="cls-5" x="183.86" y="23.81" width="16.87" height="95.15"/><rect class="cls-5" x="216.32" y="23.81" width="16.87" height="95.15"/><rect class="cls-5" x="248.78" y="23.81" width="16.87" height="95.15"/></svg>