<svg id="Layer_2" data-name="Layer 2" xmlns="http://www.w3.org/2000/svg" xmlns:xlink="http://www.w3.org/1999/xlink" viewBox="0 0 280 280"><defs><style>.cls-1{fill:none;}.cls-2{fill:#fff;}.cls-3{fill:#e61d00;}.cls-4{clip-path:url(#clip-path);}.cls-5{fill:#1b378f;}</style><clipPath id="clip-path"><circle class="cls-1" cx="140" cy="140" r="140"/></clipPath></defs><title>Artboard 14 copy 28</title><path class="cls-2" d="M140,13.08A126.92,126.92,0,1,1,13.08,140,127.06,127.06,0,0,1,140,13.08"/><path class="cls-3" d="M140,13.08A126.92,126.92,0,1,1,13.08,140,127.06,127.06,0,0,1,140,13.08M140,0A140,140,0,1,0,280,140,140,140,0,0,0,140,0Z"/><g class="cls-4"><rect class="cls-3" x="-48.55" y="194.58" width="48.97" height="48.97"/><rect class="cls-3" x="0.42" y="243.55" width="48.97" height="48.97"/><rect class="cls-3" x="49.4" y="194.58" width="48.97" height="48.97"/><rect class="cls-3" x="98.37" y="243.55" width="48.97" height="48.97"/><rect class="cls-3" x="147.34" y="194.58" width="48.97" height="48.97"/><rect class="cls-3" x="196.31" y="243.55" width="48.97" height="48.97"/><rect class="cls-3" x="245.28" y="194.58" width="48.97" height="48.97"/><rect class="cls-3" x="-48.55" y="96.64" width="48.97" height="48.97"/><rect class="cls-3" x="0.42" y="145.61" width="48.97" height="48.97"/><rect class="cls-3" x="49.4" y="96.64" width="48.97" height="48.97"/><rect class="cls-3" x="98.37" y="145.61" width="48.97" height="48.97"/><rect class="cls-3" x="147.34" y="96.64" width="48.97" height="48.97"/><rect class="cls-3" x="196.31" y="145.61" width="48.97" height="48.97"/><rect class="cls-3" x="245.28" y="96.64" width="48.97" height="48.97"/><rect class="cls-3" x="-48.55" y="-1.31" width="48.97" height="48.97"/><rect class="cls-3" x="0.42" y="47.66" width="48.97" height="48.97"/><rect class="cls-3" x="49.4" y="-1.31" width="48.97" height="48.97"/><rect class="cls-3" x="98.37" y="47.66" width="48.97" height="48.97"/><rect class="cls-3" x="147.34" y="-1.31" width="48.97" height="48.97"/><rect class="cls-3" x="196.31" y="47.66" width="48.97" height="48.97"/><rect class="cls-3" x="245.28" y="-1.31" width="48.97" height="48.97"/><rect class="cls-5" x="-55.88" y="154.42" width="499.12" height="269.01" transform="translate(-147.14 219.4) rotate(-44.63)"/></g><g class="cls-4"><rect class="cls-3" x="-48.55" y="194.58" width="48.97" height="48.97"/><rect class="cls-3" x="0.42" y="243.55" width="48.97" height="48.97"/><rect class="cls-3" x="49.4" y="194.58" width="48.97" height="48.97"/><rect class="cls-3" x="98.37" y="243.55" width="48.97" height="48.97"/><rect class="cls-3" x="147.34" y="194.58" width="48.97" height="48.97"/><rect class="cls-3" x="196.31" y="243.55" width="48.97" height="48.97"/><rect class="cls-3" x="245.28" y="194.58" width="48.97" height="48.97"/><rect class="cls-3" x="-48.55" y="96.64" width="48.97" height="48.97"/><rect class="cls-3" x="0.42" y="145.61" width="48.97" height="48.97"/><rect class="cls-3" x="49.4" y="96.64" width="48.97" height="48.97"/><rect class="cls-3" x="98.37" y="145.61" width="48.97" height="48.97"/><rect class="cls-3" x="147.34" y="96.64" width="48.97" height="48.97"/><rect class="cls-3" x="196.31" y="145.61" width="48.97" height="48.97"/><rect class="cls-3" x="245.28" y="96.64" width="48.97" height="48.97"/><rect class="cls-3" x="-48.55" y="-1.31" width="48.97" height="48.97"/><rect class="cls-3" x="0.42" y="47.66" width="48.97" height="48.97"/><rect class="cls-3" x="49.4" y="-1.31" width="48.97" height="48.97"/><rect class="cls-3" x="98.37" y="47.66" width="48.97" height="48.97"/><rect class="cls-3" x="147.34" y="-1.31" width="48.97" height="48.97"/><rect class="cls-3" x="196.31" y="47.66" width="48.97" height="48.97"/><rect class="cls-3" x="245.28" y="-1.31" width="48.97" height="48.97"/><rect class="cls-5" x="-55.88" y="154.42" width="499.12" height="269.01" transform="translate(-147.14 219.4) rotate(-44.63)"/></g><path class="cls-2" d="M183.14,236.53a40.42,40.42,0,1,1,40.42-40.42A40.46,40.46,0,0,1,183.14,236.53Zm0-67.75a27.33,27.33,0,1,0,27.33,27.33A27.36,27.36,0,0,0,183.14,168.79Z"/><rect class="cls-2" x="210.65" y="120.37" width="13.08" height="75.89"/></svg>