<svg id="Layer_2" data-name="Layer 2" xmlns="http://www.w3.org/2000/svg" xmlns:xlink="http://www.w3.org/1999/xlink" viewBox="0 0 280 280"><defs><style>.cls-1{fill:none;}.cls-2{fill:#fff;}.cls-3{fill:#231f20;}.cls-4{clip-path:url(#clip-path);}.cls-5{fill:#ffbf00;}</style><clipPath id="clip-path"><ellipse class="cls-1" cx="139" cy="140" rx="74.68" ry="116.5"/></clipPath></defs><title>Artboard 14 copy 6</title><ellipse class="cls-2" cx="139" cy="140" rx="91.78" ry="134.84"/><path class="cls-3" d="M139,280c-26.27,0-50.83-14.83-69.16-41.75C51.93,211.94,42.07,177,42.07,140s9.86-71.93,27.77-98.25C88.17,14.83,112.73,0,139,0s50.83,14.83,69.16,41.75C226.07,68.07,235.93,103,235.93,140s-9.86,71.94-27.77,98.25C189.83,265.17,165.27,280,139,280Zm0-269.69C91.24,10.31,52.38,68.49,52.38,140S91.24,269.69,139,269.69,225.62,211.51,225.62,140,186.76,10.31,139,10.31Z"/><g class="cls-4"><rect class="cls-3" x="125.87" y="-34.75" width="26.25" height="349.5"/><rect class="cls-3" x="78.96" y="-34.75" width="26.25" height="349.5"/><rect class="cls-3" x="175.89" y="-34.75" width="26.25" height="349.5"/><path class="cls-5" d="M139,337.81c-83.13,0-150.76-56-150.76-124.9S55.87,88,139,88s150.77,56,150.77,124.9S222.13,337.81,139,337.81Zm0-224c-68.91,0-125,44.46-125,99.12S70.08,312,139,312s125-44.46,125-99.12S207.91,113.8,139,113.8Z"/><path class="cls-2" d="M139,93.18c80.29,0,145.61,53.72,145.61,119.74S219.29,332.66,139,332.66-6.61,278.94-6.61,212.92,58.71,93.18,139,93.18m0,224c71.76,0,130.14-46.78,130.14-104.27S210.76,108.65,139,108.65,8.86,155.42,8.86,212.92,67.24,317.19,139,317.19m0-234.33c-86,0-155.92,58.34-155.92,130.05S53,343,139,343s155.92-58.34,155.92-130.05S225,82.87,139,82.87Zm0,224c-32.37,0-62.74-10.05-85.53-28.31-22.12-17.72-34.3-41-34.3-65.65S31.35,165,53.47,147.27C76.25,129,106.63,119,139,119s62.75,10.05,85.53,28.31c22.12,17.72,34.3,41,34.3,65.65s-12.18,47.93-34.3,65.65c-22.79,18.26-53.16,28.31-85.53,28.31Z"/></g><rect class="cls-2" x="119.41" y="180.73" width="39.19" height="9.8"/><rect class="cls-2" x="119.41" y="201.36" width="39.19" height="9.8"/></svg>