<svg id="Layer_2" data-name="Layer 2" xmlns="http://www.w3.org/2000/svg" xmlns:xlink="http://www.w3.org/1999/xlink" viewBox="0 0 280 280"><defs><style>.cls-1{fill:#fff;}.cls-2{fill:none;}.cls-3{fill:#364f99;}.cls-4{clip-path:url(#clip-path);}.cls-5{fill:#c11f20;}.cls-6{clip-path:url(#clip-path-2);}</style><clipPath id="clip-path"><polygon class="cls-2" points="137.35 325 -87.91 325 -87.91 137.75 90.85 137.75 137.35 325"/></clipPath><clipPath id="clip-path-2"><circle class="cls-2" cx="140.45" cy="139.23" r="110.57"/></clipPath></defs><title>Artboard 14 copy 30</title><circle class="cls-1" cx="140.45" cy="139.23" r="133.09"/><path class="cls-3" d="M140.45,277.49c-76.24,0-138.26-62-138.26-138.26S64.22,1,140.45,1,278.71,63,278.71,139.23,216.69,277.49,140.45,277.49Zm0-266.19A127.93,127.93,0,1,0,268.38,139.23,128.07,128.07,0,0,0,140.45,11.31Z"/><g class="cls-4"><path class="cls-5" d="M140.45,39A100.23,100.23,0,1,1,40.22,139.23,100.35,100.35,0,0,1,140.45,39m0-10.33A110.57,110.57,0,1,0,251,139.23,110.57,110.57,0,0,0,140.45,28.67Z"/><path class="cls-5" d="M140.45,56.57a82.67,82.67,0,1,1-82.67,82.67,82.76,82.76,0,0,1,82.67-82.67m0-10.33a93,93,0,1,0,93,93,93,93,0,0,0-93-93Z"/><rect class="cls-1" x="30.27" y="157.55" width="112.9" height="10.33" transform="translate(-63.01 55.12) rotate(-26.24)"/></g><g class="cls-6"><polygon class="cls-3" points="160.44 358.3 101.19 139.23 282.02 28.32 398.79 256.48 160.44 358.3"/></g><path class="cls-3" d="M140.45,28.67h-4.88l-.39,0h-.58l-.48,0h-.49l-.48,0h-.58l-.38,0h-1.68l-.31,0h-.53l-1.59.17,3.09,27.73a84.13,84.13,0,0,1,9.29-.51V28.67Zm-24.6,2.75-1.37.32h0l-.58.14h0l-.08,0h0l-.08,0h0l-.49.12h0l-.07,0h0l-.07,0h0l-.07,0h0l-.41.1h0l-.07,0h0l-.07,0h0l-.07,0h0l-.48.13h0l-.07,0h0l-.07,0h0l-.48.13h0l-.08,0h0l-.08,0h0l-.49.14h0l-.08,0h0l-.08,0h0l-.08,0h0l-.57.16h0q-1.68.49-3.33,1h0l-.08,0h0l-.56.18h0l-.07,0h0l-.07,0h0l-.39.13h0l-.07,0h0l-.06,0h0l-.06,0h0l-.07,0h0l-.29.1h0l-.06,0h0l0,0h0l0,0h0l0,0h0l0,0h0l-.05,0h0l-.06,0,9.21,26.34A82.15,82.15,0,0,1,122,58.62l-6.18-27.21ZM92.5,39.58h0l-.06,0h0l-.06,0h0l-.06,0h0l-.07,0h0l-.08,0h0l-.06,0h0l-.05,0,0,0,0,0,0,0,0,0,0,0,0,0,0,0-.08,0,0,0,0,0,0,0,0,0,0,0,0,0,0,0,0,0,0,0,0,0,0,0h0l-.11.05h0l0,0,0,0,0,0,0,0,0,0,0,0,0,0h0l-.05,0h0l-.2.1h0l-.06,0h0l-.05,0h0l-.05,0h0l-.06,0h0l-.21.11h0l-.07,0h0l-.06,0h0l-.07,0h0l-.06,0h0l-.29.15h0l-.07,0h0l-.06,0h0l-.07,0h0l-.37.19h0l-.07,0h0l-.51.27h0q-1.32.71-2.63,1.46h0l-.58.33h0l-.43.25h0l-.07,0h0l-.07,0h0l-.35.21h0l-.06,0h0l-.06,0h0l-.07,0h0l-.27.16h0l-.05,0h0l-.05,0,0,0-.05,0h0l-.06,0h0l-.12.07h0l-.05,0,0,0,0,0,0,0,0,0,0,0,0,0,0,0,0,0,0,0,0,0-.06,0,0,0,0,0,0,0,0,0,0,0,0,0,0,0,0,0,0,0-.07,0h0l-.08,0h0l-.07,0h0l-.06,0h0l-.06,0h0l-.07,0h0L96.51,69.2a82.81,82.81,0,0,1,8.1-4.48L92.5,39.58ZM71.55,52.76A111.14,111.14,0,0,0,62.31,61L82,80.75a83.6,83.6,0,0,1,6.92-6.19L71.55,52.76ZM54,70.25q-2.82,3.53-5.36,7.3h0l0,.06h0l0,.06h0l-.17.26h0l0,.06,0,0,0,0,0,0,0,0,0,0,0,0,0,0,0,0,0,.07,0,0,0,0,0,0,0,.05,0,0,0,.05v0l0,.06h0l-.16.24h0l0,.07h0l-.84,1.3,23.6,14.88a83.14,83.14,0,0,1,5.38-7.56L54,70.25ZM40.84,91.19q-.42.87-.82,1.74h0L40,93h0l-.16.35h0l0,.07h0l0,.07v0l0,.07v0l0,.08h0l-.08.17v0l0,.06,0,0,0,0,0,0,0,0,0,0,0,0,0,0,0,.05v0l0,.09,0,0,0,0,0,0,0,0,0,0,0,0,0,0,0,0,0,0v0l0,.05v0l-.06.13h0l0,.06v0l0,.05v0l0,.05v0l0,.05v0l0,.06h0l-.09.22h0l0,.06v0l0,.06v0l0,.06v0l0,.07v0l0,.06h0l-.09.22h0l0,.06v0l0,.06h0l0,.07h0l0,.07h0l-.13.3h0l0,.07v0l0,.06v0l0,.06v0l0,.07h0l-.09.22h0l0,.06v0l0,.06v0l0,.06v0l0,.06v0l0,.06h0l-.08.2v0l0,0v0l0,0v0l0,0v0l0,0,0,0,0,0,0,.06,0,0,0,.06v0l0,.05v0l0,.05v0l0,.05v0l0,.06v0l0,.08h0l-.07.18v0l0,.07h0l0,.07v0l0,.07v0l0,.08h0l-.17.45h0q-.48,1.27-.93,2.56l26.33,9.23A82.34,82.34,0,0,1,66,103.33L40.84,91.19Zm-8.19,23.35-.16.72h0l0,.07v.45l0,.13v.7l0,.09v.67l0,.09h0l0,.09v.66h0l0,.09v1.46l0,.22h0v.43h0l-.07.42h0v.08h0V121h0v.08h0q-.46,2.8-.78,5.64l27.73,3.11a82.61,82.61,0,0,1,1.55-9.13l-27.2-6.21ZM199.59,45.79,184.64,69.35a83.2,83.2,0,0,1,7.54,5.4L209.66,53h0l0,0,0,0,0,0,0,0-.05,0h0l-.08-.06h0l-.07-.05,0,0-.05,0,0,0,0,0,0,0,0,0h0l-.07-.05h0l-.15-.12h0l-.06,0,0,0-.05,0h0l-.06,0h0l-.07-.05h0l-.15-.12h0l-.06-.05h0l-.06,0h0l-.06,0h0l-.07-.05h0l-.15-.12h0l-.06,0h0l-.06,0h0l-.06,0h0l-.23-.17h0l-.07-.05h0l-.06,0h0l-.07-.05h0l-.23-.17h0l-.07-.05h0l-.06,0h0l-.07,0h0l-.31-.23h0l-.07,0h0l-.07-.05h0l-.3-.22h0l-.06,0h0l-.06,0h0l-.07-.05h0l-.23-.17h0l-.07,0h0l-.06,0h0l-.07-.05h0l-.23-.17h0l-.06,0h0l-.07,0h0l-.07-.05h0l-.23-.17h0l-.07,0h0l-.07,0h0l-.07,0h0l-.23-.17h0l-.06,0h0l-.06,0h0l-.07,0h0l-.16-.11h0l-.07-.05h0l-.06,0h0l-.06,0h0l-.07,0h0l-.23-.16h0l-.06,0h0L203,48h0l-.07,0h0l-.24-.16h0l-.07,0h0l-.07,0h0l-.07,0h0l-.23-.16h0l-.07,0h0l-.06,0h0l-.07,0h0l-.08-.05h0l-.08-.05h0l-.07,0h0l-.06,0,0,0-.05,0,0,0-.05,0h0l-.07,0h0l-.08-.05h0l-.07,0h0l-.06,0,0,0-.05,0,0,0-.05,0,0,0-.06,0h0l-.08,0h0l-.06,0,0,0-.05,0,0,0,0,0,0,0-.05,0,0,0-.06,0h0l-.08,0h0l-.06,0,0,0,0,0,0,0,0,0,0,0,0,0,0,0-.05,0,0,0-.07,0,0,0,0,0,0,0,0,0,0,0,0,0ZM177.33,35,168,61.27a82.16,82.16,0,0,1,8.53,3.57l12.21-25.09-.14-.07h0l-.06,0h0l-.07,0h0l-.06,0h0l-.44-.21h0A110,110,0,0,0,177.33,35ZM153.22,29.4,150,57.11a82.71,82.71,0,0,1,9.12,1.57l6.28-27.18q-1.82-.42-3.67-.78h0l-.09,0h0l-.47-.09h0l-.09,0h0l-.08,0h0l-.09,0h0l-.08,0h0l-.38-.07h0l-.09,0h0l-.09,0h-.11l-.09,0h0l-.38-.07h0l-.09,0h-.39l-.38-.06h-.39l-.48-.08h-.2q-2.25-.35-4.53-.62Zm-12.77-.73v27.9h.3l.1-27.9Z"/></svg>