<svg id="Layer_2" data-name="Layer 2" xmlns="http://www.w3.org/2000/svg" xmlns:xlink="http://www.w3.org/1999/xlink" viewBox="0 0 280 280"><defs><style>.cls-1{fill:none;}.cls-2{clip-path:url(#clip-path);}.cls-3{fill:#ffef00;}.cls-4{fill:#244598;}.cls-5{fill:#fff;}</style><clipPath id="clip-path"><path class="cls-1" d="M36.43,1.4C58,101.59-18.33,148.52,4.22,203.29s107.51,52.18,135.3,75.31c25.57-21.22,109.53-21.62,135.3-75.31S220.63,101.59,242.61,1.4c0,0-64.43,27.79-102.56,0C104.08,31.53,36.43,1.4,36.43,1.4Z"/></clipPath></defs><title>Artboard 14 copy 31</title><g class="cls-2"><path class="cls-3" d="M36.43,1.4C58,101.59-18.33,148.52,4.22,203.29s107.51,52.18,135.3,75.31c25.57-21.22,109.53-21.62,135.3-75.31S220.63,101.59,242.61,1.4c0,0-70.33,29.61-103.09,0C103.55,31.53,36.43,1.4,36.43,1.4Z"/><path class="cls-3" d="M36.43,1.4C58,101.59-18.33,148.52,4.22,203.29s107.51,52.18,135.3,75.31c25.57-21.22,109.53-21.62,135.3-75.31S220.63,101.59,242.61,1.4c0,0-70.33,29.61-103.09,0C103.55,31.53,36.43,1.4,36.43,1.4Z"/><path class="cls-4" d="M139.51,292.56l-6.86-5.71c-8.24-6.86-24.92-11.66-42.59-16.74-35.35-10.17-79.34-22.83-95.78-62.74-12.06-29.29-.19-56.11,12.38-84.5,14.16-32,30.21-68.26,19.26-119.21L21.48-17.08,40.82-8.39a171.3,171.3,0,0,0,36,10.6c17,3,40.53,3.8,55.84-9l7.16-6,6.93,6.27C169.36,13.9,220.61-1,238.45-8.5l19.07-8L253.1,3.71C242.06,54,258.51,90.23,273,122.18c13.16,29,25.59,56.37,11.49,85.75C265.75,247,221.63,260.31,186.19,271c-16.71,5-32.49,9.8-39.81,15.87ZM50,17.77C55.33,66,39.39,102,26.31,131.56,14.73,157.73,5.58,178.39,14.15,199.2,26.63,229.51,63.48,240.11,96,249.47c17.07,4.91,32.22,9.27,43.58,16.08,10.46-6.1,24.57-10.35,40.41-15.12,33-10,70.49-21.25,85.15-51.79,9.76-20.34.77-40.15-11.69-67.58-13.44-29.6-29.8-65.65-24.39-113.59-22.84,6.78-62.7,14.56-89.71-2.73C111,32.29,72.35,24.68,50,17.77Z"/><rect class="cls-4" x="-107.46" y="-79.13" width="183.63" height="417.72"/><rect class="cls-4" x="206.1" y="-79.13" width="183.63" height="417.72"/><path class="cls-4" d="M175.34,140l-75.7,63.61s-32-77.23,40.36-142.5C140,61.11,125.41,118.27,175.34,140Z"/><circle class="cls-5" cx="164.6" cy="75.94" r="25.77"/><path class="cls-4" d="M164.6,104.39a28.46,28.46,0,1,1,28.46-28.46A28.49,28.49,0,0,1,164.6,104.39Zm0-51.54a23.09,23.09,0,1,0,23.09,23.09A23.11,23.11,0,0,0,164.6,52.85Z"/></g></svg>