<svg id="Layer_2" data-name="Layer 2" xmlns="http://www.w3.org/2000/svg" viewBox="0 0 280 280"><defs><style>.cls-1{fill:#fff;}.cls-2{fill:#0051a2;}.cls-3{fill:#ffbf00;}</style></defs><title>Artboard 14 copy 4</title><path class="cls-1" d="M140,269A129,129,0,1,1,269,140,129.14,129.14,0,0,1,140,269Z"/><path class="cls-2" d="M140,22A118,118,0,1,1,22,140,118,118,0,0,1,140,22m0-22A140,140,0,0,0,41,239,140,140,0,1,0,239,41,139.08,139.08,0,0,0,140,0Z"/><circle class="cls-2" cx="140" cy="140" r="75.21"/><polygon class="cls-1" points="97.6 198.31 71.4 117.64 140 67.79 208.6 117.65 182.4 198.31 97.6 198.31"/><polygon class="cls-3" points="173.04 95.99 193.46 157.28 140 195.34 86.55 157.67 106.96 95.99 173.04 95.99"/><path class="cls-2" d="M231.26,115.69a94.45,94.45,0,0,0-182.51,0l-7.44-2a102.15,102.15,0,0,1,197.39,0Z"/><path class="cls-2" d="M140,241.86A102.1,102.1,0,0,1,38.2,148l7.68-.61a94.43,94.43,0,0,0,188.24,0l7.68.61A102.1,102.1,0,0,1,140,241.86Z"/></svg>