<svg id="Layer_2" data-name="Layer 2" xmlns="http://www.w3.org/2000/svg" viewBox="0 0 280 280"><defs><style>.cls-1{fill:#e50006;}.cls-2{fill:#fff;}.cls-3{fill:#121212;}.cls-4{fill:#ffe200;}</style></defs><title>Artboard 14 copy 16</title><polygon class="cls-1" points="105.98 36.4 57.8 26.14 30.77 36.25 30.77 91.63 30.77 142.04 20.51 142.04 20.51 87.68 0 87.68 0 162.55 30.77 162.55 30.77 218.96 129.23 218.96 77.95 164.6 77.95 91.63 114.87 61.96 105.98 36.4"/><polygon class="cls-1" points="174.02 36.4 222.2 26.14 249.23 36.25 249.23 91.63 249.23 142.04 259.49 142.04 259.49 87.68 280 87.68 280 162.55 249.23 162.55 249.23 218.96 150.77 218.96 202.05 164.6 202.05 91.63 165.13 61.96 174.02 36.4"/><path class="cls-2" d="M139.49,209.6a72.84,72.84,0,1,1,72.84-72.84A72.92,72.92,0,0,1,139.49,209.6Z"/><path class="cls-3" d="M139.49,69a67.71,67.71,0,1,1-67.71,67.71A67.71,67.71,0,0,1,139.49,69m0-10.26a78,78,0,1,0,78,78,78.05,78.05,0,0,0-78-78Z"/><path class="cls-2" d="M139.49,58.81a77.95,77.95,0,1,1-77.95,78,78,78,0,0,1,77.95-78m0-10.26a88.21,88.21,0,1,0,88.21,88.21,88.31,88.31,0,0,0-88.21-88.21Z"/><polygon class="cls-4" points="164.51 62.47 114.46 62.47 104.2 29.5 174.77 29.5 164.51 62.47"/><path class="cls-3" d="M168.29,67.6H110.68L97.24,24.37h84.5ZM118.24,57.35h42.5l7.07-22.72H111.17Z"/><polygon class="cls-4" points="254.04 240.23 139.49 250.48 24.93 240.23 14.67 204.17 139.49 214.42 264.3 204.17 254.04 240.23"/><path class="cls-3" d="M139.49,255.63l-.46,0L21,245,7.71,198.45l131.77,10.83,131.77-10.83L258,245ZM28.9,235.43l110.59,9.9,110.59-9.9,7.27-25.55-117.86,9.68-.42,0L21.63,209.88Z"/><rect class="cls-3" x="126.15" y="81.53" width="26.67" height="10.26"/><rect class="cls-3" x="126.15" y="101.02" width="26.67" height="10.26"/><rect class="cls-3" x="126.15" y="120.5" width="26.67" height="10.26"/><rect class="cls-3" x="126.15" y="139.99" width="26.67" height="10.26"/><rect class="cls-3" x="126.15" y="159.48" width="26.67" height="10.26"/><rect class="cls-3" x="126.15" y="178.96" width="26.67" height="10.26"/><rect class="cls-3" x="182.56" y="121.53" width="10.26" height="26.67"/><rect class="cls-3" x="163.08" y="121.53" width="10.26" height="26.67"/><rect class="cls-3" x="104.62" y="122.55" width="10.26" height="26.67"/><rect class="cls-3" x="85.13" y="122.55" width="10.26" height="26.67"/></svg>