<svg id="Layer_2" data-name="Layer 2" xmlns="http://www.w3.org/2000/svg" viewBox="0 0 280 280"><defs><style>.cls-1{fill:#ffe600;}.cls-2{fill:#f00000;}.cls-3{fill:#00a698;}.cls-4{fill:#fff;}.cls-5{fill:#e50019;}</style></defs><title>Artboard 14 copy 45</title><polygon class="cls-1" points="51.7 221.6 38.09 200.25 51.7 178.89 65.32 200.25 51.7 221.6"/><path class="cls-2" d="M51.7,230l-19-29.77,19-29.77,19,29.77Zm-8.25-29.77,8.25,12.95L60,200.25,51.7,187.3Z"/><polygon class="cls-1" points="228.29 221.6 214.68 200.25 228.29 178.89 241.91 200.25 228.29 221.6"/><path class="cls-2" d="M228.3,230l-19-29.77,19-29.77,19,29.77ZM220,200.25l8.25,12.95,8.25-12.95L228.3,187.3Z"/><polygon class="cls-3" points="238.36 257.95 145.19 250.2 130.66 220 238.36 227.74 229.46 241.69 238.36 257.95"/><polygon class="cls-3" points="43.54 257.95 136.71 250.2 151.24 220 43.54 227.74 52.44 241.69 43.54 257.95"/><path class="cls-4" d="M185.84,80.35c-18.33,0-34.64-9.15-45.09-23.37C130.3,71.19,114,80.35,95.67,80.35a55.33,55.33,0,0,1-39.78-17.1c-.48,4.85-.73,9.76-.73,14.74,0,60.19,35.53,168.72,85.61,189.14C190.83,246.71,226.36,138.18,226.36,78c0-5-.26-9.9-.73-14.74A55.33,55.33,0,0,1,185.84,80.35Z"/><path class="cls-5" d="M140.75,274.46l-2.56-1c-13-5.31-25.61-16.06-37.39-31.95C90.54,227.62,81.15,210.32,72.89,190c-15.13-37.17-24.53-80.1-24.53-112,0-5,.26-10.22.77-15.41l1.43-14.53L60.74,58.52a48.49,48.49,0,0,0,34.92,15c15.56,0,30-7.51,39.62-20.6l5.46-7.43L146.22,53c9.63,13.09,24.07,20.6,39.62,20.6a48.49,48.49,0,0,0,34.92-15L230.95,48l1.42,14.54c.51,5.19.77,10.38.77,15.4,0,31.94-9.4,74.87-24.53,112-8.26,20.29-17.65,37.59-27.91,51.43-11.78,15.88-24.36,26.63-37.39,31.95ZM61.93,77c0,.33,0,.66,0,1,0,57.78,33.67,160.05,78.83,181.73C185.91,238,219.58,135.78,219.58,78c0-.33,0-.66,0-1a61.19,61.19,0,0,1-33.73,10.12,61.84,61.84,0,0,1-45.09-19.6,61.85,61.85,0,0,1-45.09,19.6A61.19,61.19,0,0,1,61.93,77Z"/><path class="cls-5" d="M185.84,80.35c-18.33,0-34.64-9.15-45.09-23.37C130.3,71.19,114,80.35,95.67,80.35a55.32,55.32,0,0,1-39.78-17.1c-.48,4.85-.73,9.76-.73,14.74a237.3,237.3,0,0,0,4.33,42.09H222A237.29,237.29,0,0,0,226.36,78c0-5-.26-9.9-.73-14.74A55.33,55.33,0,0,1,185.84,80.35Z"/><path class="cls-4" d="M211.63,110.28H204.4V85h7.23Zm-17.18,0h-7.23V85h7.23Zm-17.18,0H170V85h7.23Zm-17.18,0h-7.23V85h7.23Zm-17.18,0h-7.23V85h7.23Zm-17.18,0h-7.23V85h7.23Zm-17.18,0h-7.23V85h7.23Zm-17.18,0H84.16V85h7.23Zm-17.18,0H67V85h7.23Z"/><path class="cls-5" d="M192.74,145.58h-3.62V130.21h3.62Zm-13.56,0h-3.62V130.21h3.62Zm-13.56,0H162V130.21h3.62Zm-13.56,0h-3.62V130.21h3.62Zm-13.56,0h-3.62V130.21h3.62Zm-13.56,0h-3.62V130.21h3.62Zm-13.56,0h-3.62V130.21h3.62Zm-13.56,0H94.19V130.21h3.62Zm-13.56,0H80.63V130.21h3.62Z"/><polygon class="cls-5" points="130.21 172.81 162.07 156.87 151.12 226.58 131.2 226.58 120.25 193.72 130.21 172.81"/><polygon class="cls-3" points="183.95 276.54 97.55 276.54 83.03 246.33 198.48 246.33 183.95 276.54"/><rect class="cls-3" x="39.1" y="41.1" width="203.31" height="14.7"/><rect class="cls-3" x="53.25" y="27.27" width="173.11" height="5.42"/><rect class="cls-3" x="96.55" y="13.97" width="86.51" height="5.42"/><rect class="cls-3" x="124.03" y="0.67" width="31.55" height="5.42"/><path class="cls-4" d="M173.07,267.49h-3.62V255.73h3.62Zm-9.94,0h-3.62V255.73h3.62Zm-9.94,0h-3.62V255.73h3.62Zm-9.94,0h-3.62V255.73h3.62Zm-9.94,0h-3.62V255.73h3.62Zm-9.94,0h-3.62V255.73h3.62Zm-9.94,0h-3.62V255.73h3.62Z"/></svg>