<svg id="Layer_2" data-name="Layer 2" xmlns="http://www.w3.org/2000/svg" xmlns:xlink="http://www.w3.org/1999/xlink" viewBox="0 0 280 280"><defs><style>.cls-1{fill:none;}.cls-2{fill:#006937;}.cls-3{fill:#fff;}.cls-4{clip-path:url(#clip-path);}.cls-5{fill:#343233;}</style><clipPath id="clip-path"><path class="cls-1" d="M63.65,27.49c-17.76,27.49-18.9,60-18.9,95.29A176.91,176.91,0,0,0,140.5,280c56.88-29.52,95.75-88.6,95.75-157.11,0-35.27.69-67.92-18.9-95.4C187.69,27.49,173,0,141,0S94.23,27.49,63.65,27.49Z"/></clipPath></defs><title>Artboard 14 copy 29</title><path class="cls-2" d="M63.65,27.49c-17.76,27.49-18.9,60-18.9,95.29A176.91,176.91,0,0,0,140.5,280c56.88-29.52,95.75-88.6,95.75-157.11,0-35.27.69-67.92-18.9-95.4C187.69,27.49,173,0,141,0S94.23,27.49,63.65,27.49Z"/><path class="cls-3" d="M102,95.09c8,37.27-8.39,50.74,0,71.12s28,23.41,38.35,32c9.51-7.89,28.77-12,38.35-32s-8.17-33.84,0-71.12L141.88,79.52Z"/><rect class="cls-3" x="70.39" y="44.39" width="13.74" height="15.96" transform="translate(-7.72 13.77) rotate(-9.7)"/><rect class="cls-3" x="95.23" y="41" width="13.74" height="15.96" transform="translate(-4.44 10.6) rotate(-5.82)"/><rect class="cls-3" x="120.2" y="39.31" width="13.74" height="15.96" transform="matrix(1, -0.03, 0.03, 1, -1.53, 4.32)"/><rect class="cls-3" x="144.11" y="40.42" width="15.96" height="13.74" transform="matrix(0.03, -1, 1, 0.03, 99.68, 197.69)"/><rect class="cls-3" x="169.09" y="42.11" width="15.96" height="13.74" transform="translate(110.38 220.16) rotate(-84.18)"/><rect class="cls-3" x="193.93" y="45.49" width="15.96" height="13.74" transform="translate(116.27 242.56) rotate(-80.3)"/><rect class="cls-3" x="120.45" y="229.23" width="13.74" height="15.96" transform="translate(-27.58 17.02) rotate(-6.9)"/><rect class="cls-3" x="145.7" y="230.34" width="15.96" height="13.74" transform="translate(-100.29 361.26) rotate(-83.1)"/><g class="cls-4"><rect class="cls-3" x="12.3" y="105.96" width="255.55" height="13.96" transform="translate(-23.62 38.23) rotate(-14.35)"/><rect class="cls-3" x="12.3" y="131.62" width="255.55" height="13.96" transform="translate(-29.98 39.03) rotate(-14.35)"/><rect class="cls-3" x="12.3" y="157.29" width="255.55" height="13.96" transform="translate(-36.34 39.83) rotate(-14.35)"/></g><path class="cls-5" d="M140.95,216.09l-8.78-7.31c-2.07-1.72-5.54-3.53-9.22-5.44-10.7-5.57-25.35-13.19-33-31.9C84.35,158,86.54,146.81,88.65,136c2-10.41,4.14-21.17.52-38L86.28,84.54l26.87-5.77L116,92.2c4.81,22.38,1.79,37.82-.42,49.09-1.83,9.36-2.61,14.1-.31,19.68,3.88,9.43,11.5,13.39,20.32,18,1.76.92,3.55,1.85,5.31,2.83,1.34-.76,2.72-1.51,4.11-2.27,8.78-4.78,17.07-9.29,21.86-19.26,2.49-5.19,1.71-9.61-.28-19.12-2.37-11.3-5.62-26.78-.75-49l2.94-13.42,26.85,5.89L192.74,98c-3.61,16.45-1.36,27.13.8,37.46,2.36,11.23,4.8,22.84-1.84,36.66-8.63,18-23,25.8-33.5,31.51a61,61,0,0,0-8.47,5.13Z"/></svg>