<svg id="Layer_2" data-name="Layer 2" xmlns="http://www.w3.org/2000/svg" viewBox="0 0 280 280"><defs><style>.cls-1{fill:#003882;}.cls-2{fill:#d5a03b;}.cls-3{fill:#dd0008;}.cls-4{fill:#fff;}</style></defs><title>Artboard 14 copy 12</title><polygon class="cls-1" points="16.38 251.65 16.38 6.24 263.62 6.24 263.62 251.65 140 273.66 16.38 251.65"/><path class="cls-2" d="M257.37,12.49V246.42L140,267.32,22.63,246.42V12.49H257.37M269.86,0H10.14V256.88l10.3,1.83,117.37,20.9L140,280l2.19-.39,117.37-20.9,10.3-1.83V0Z"/><rect class="cls-3" x="16.38" y="6.24" width="247.23" height="102.39"/><path class="cls-2" d="M257.37,12.49v89.9H22.63V12.49H257.37M269.86,0H10.14V114.88H269.86V0Z"/><circle class="cls-4" cx="95.44" cy="183.16" r="53.46"/><polygon class="cls-4" points="207.43 204.78 207.43 129.86 168.72 129.86 168.72 201.89 168.72 237.24 208.19 237.24 238.64 237.24 238.64 204.78 207.43 204.78"/><rect class="cls-4" x="41.36" y="29.97" width="12.49" height="53.69"/><rect class="cls-4" x="67.58" y="29.97" width="12.49" height="53.69"/><rect class="cls-4" x="93.8" y="29.97" width="12.49" height="53.69"/><rect class="cls-4" x="120.02" y="29.97" width="12.49" height="53.69"/><rect class="cls-4" x="146.24" y="29.97" width="12.49" height="53.69"/><rect class="cls-4" x="172.46" y="29.97" width="12.49" height="53.69"/><rect class="cls-4" x="198.69" y="29.97" width="12.49" height="53.69"/><rect class="cls-4" x="224.91" y="29.97" width="12.49" height="53.69"/><rect class="cls-2" x="83.33" y="150.59" width="24.23" height="64.68"/></svg>