<svg id="Layer_2" data-name="Layer 2" xmlns="http://www.w3.org/2000/svg" xmlns:xlink="http://www.w3.org/1999/xlink" viewBox="0 0 280 280"><defs><style>.cls-1{fill:none;}.cls-2{fill:#fff;}.cls-3{fill:#ffbf00;}.cls-4{clip-path:url(#clip-path);}.cls-5{fill:#0050a1;}.cls-6{fill:#f12e4a;}</style><clipPath id="clip-path"><circle class="cls-1" cx="139" cy="161.26" r="78.97"/></clipPath></defs><title>v</title><circle class="cls-2" cx="139" cy="161.26" r="107.26"/><path class="cls-3" d="M139,278.51A117.26,117.26,0,1,1,256.26,161.26,117.39,117.39,0,0,1,139,278.51ZM139,64a97.26,97.26,0,1,0,97.26,97.26A97.37,97.37,0,0,0,139,64Z"/><g class="cls-4"><rect class="cls-5" x="101.22" y="11.42" width="75.57" height="299.67" transform="translate(-73.31 145.52) rotate(-45)"/></g><path class="cls-6" d="M139,23.93a136.65,136.65,0,0,1,47.89,8.62l11.46-19.85a169.86,169.86,0,0,0-117-.61L92.77,31.95A136.68,136.68,0,0,1,139,23.93Z"/></svg>