<svg id="Layer_2" data-name="Layer 2" xmlns="http://www.w3.org/2000/svg" xmlns:xlink="http://www.w3.org/1999/xlink" viewBox="0 0 280 280"><defs><style>.cls-1{fill:none;}.cls-2{fill:#fff;}.cls-3{fill:#69ace1;}.cls-4{fill:#002660;}.cls-5{fill:#ffc84c;}.cls-6{clip-path:url(#clip-path);}.cls-7{fill:#d80007;}.cls-8{fill:#012660;}</style><clipPath id="clip-path"><path class="cls-1" d="M189.22,137.05c0-10.29-1.81-40.57-5.07-49.51-11.71-11.68-76.85-10.32-88.68,2-3,8.67-4.69,37.64-4.69,47.54,0,35.06,20.87,64.56,49.22,73.27C168.35,201.61,189.22,172.11,189.22,137.05Z"/></clipPath></defs><title>Artboard 14 copy 33</title><path class="cls-2" d="M140,26.64A113.36,113.36,0,1,1,26.64,140,113.36,113.36,0,0,1,140,26.64"/><path class="cls-3" d="M140,26.64A113.36,113.36,0,1,1,26.64,140,113.36,113.36,0,0,1,140,26.64m0-14.25A127.61,127.61,0,0,0,49.77,230.23,127.61,127.61,0,0,0,230.23,49.77,126.78,126.78,0,0,0,140,12.39Z"/><path class="cls-4" d="M140,14.25A125.75,125.75,0,1,1,14.25,140,125.75,125.75,0,0,1,140,14.25M140,0A140,140,0,0,0,41,239,140,140,0,0,0,239,41,139.08,139.08,0,0,0,140,0Z"/><path class="cls-3" d="M140,216.49A76.49,76.49,0,1,1,216.49,140,76.58,76.58,0,0,1,140,216.49Z"/><path class="cls-4" d="M140,70.63A69.37,69.37,0,1,1,70.63,140,69.37,69.37,0,0,1,140,70.63m0-14.25A83.62,83.62,0,1,0,223.62,140,83.71,83.71,0,0,0,140,56.38Z"/><path class="cls-2" d="M138.61,214.86c-31-9.51-52.58-41.5-52.58-77.81,0-8.41,1.49-39.18,5-49.11l.34-1,.72-.75c8.15-8.47,33-11.48,51.81-11.48,10.28,0,35.11.92,43.65,9.43l.75.75.36,1c3.74,10.28,5.35,42.36,5.35,51.14,0,36.31-21.62,68.3-52.58,77.81l-1.39.43Z"/><path class="cls-5" d="M143.85,79.49c17.83,0,34.85,2.61,40.3,8,3.26,8.95,5.07,39.22,5.07,49.51,0,35.06-20.87,64.56-49.22,73.27-28.35-8.71-49.22-38.21-49.22-73.27,0-9.9,1.66-38.87,4.69-47.54,6.33-6.57,27.89-10,48.38-10m0-9.5c-10,0-43.68.93-55.23,12.93l-1.44,1.5-.68,2c-3.86,11.06-5.22,43.4-5.22,50.67a91.54,91.54,0,0,0,15.63,51.87c10.07,14.77,24.38,25.59,40.3,30.48l2.79.86,2.79-.86c15.92-4.89,30.23-15.71,40.3-30.48a91.54,91.54,0,0,0,15.63-51.87c0-7.59-1.47-41.32-5.64-52.77l-.72-2-1.5-1.49c-9.44-9.42-33.5-10.82-47-10.82Z"/><g class="cls-6"><rect class="cls-3" x="12.15" y="141.96" width="262.59" height="122.64"/></g><circle class="cls-7" cx="140" cy="170.41" r="16.49"/><path class="cls-8" d="M140,191.65a21.24,21.24,0,1,1,21.24-21.24A21.27,21.27,0,0,1,140,191.65Zm0-33a11.74,11.74,0,1,0,11.74,11.74A11.75,11.75,0,0,0,140,158.67Z"/><polygon class="cls-5" points="163.16 134.12 115.29 134.12 109.59 121.24 168.86 121.24 163.16 134.12"/><rect class="cls-5" x="111.49" y="104.84" width="24.23" height="11.4"/><rect class="cls-5" x="141.13" y="104.84" width="24.23" height="11.4"/><rect class="cls-5" x="118.46" y="88.69" width="16.25" height="11.4"/><rect class="cls-5" x="140.24" y="88.69" width="16.25" height="11.4"/></svg>