<svg id="Layer_2" data-name="Layer 2" xmlns="http://www.w3.org/2000/svg" viewBox="0 0 280 280"><defs><style>.cls-1{fill:#ffe600;}.cls-2{fill:#231f20;}.cls-3{fill:#f00000;}</style></defs><title>Artboard 14 copy 46</title><polygon class="cls-1" points="188.43 186.55 138.92 214.02 92.06 186.55 92.06 76.43 188.43 76.43 188.43 186.55"/><path class="cls-2" d="M138.86,219.15,87.6,189.1V72H192.9v117.2ZM96.52,184,139,208.88l45-25v-103H96.52Z"/><polygon class="cls-1" points="182.92 182.59 139.08 207.44 97.57 182.59 97.57 83.01 182.92 83.01 182.92 182.59"/><path class="cls-3" d="M139,212.6l-45.9-27.48V78.55h94.28V185.19Zm-37-32.54,37.11,22.21L178.46,180V87.48H102Z"/><rect class="cls-3" x="97.57" y="83.01" width="85.35" height="36.24"/><rect class="cls-1" x="125.6" y="88.28" width="10.43" height="12.34"/><polygon class="cls-1" points="120.99 100.62 113.07 100.62 120.99 88.28 120.99 100.62"/><rect class="cls-1" x="140.49" y="88.28" width="10.43" height="12.34"/><rect class="cls-1" x="155.37" y="88.28" width="10.43" height="12.34"/><rect class="cls-1" x="106.99" y="105.15" width="68.07" height="5.9"/><rect class="cls-3" x="130.53" y="126.77" width="19.72" height="65.15"/><rect class="cls-3" x="114.95" y="126.77" width="9.42" height="38.76"/><rect class="cls-3" x="157.54" y="126.77" width="8.79" height="51.77"/><rect class="cls-1" x="34.06" y="47.45" width="33.38" height="20.23" rx="6" ry="6" transform="translate(-25.51 49.01) rotate(-42.2)"/><path class="cls-2" d="M45.55,76.28a7.57,7.57,0,0,1-5.62-2.49l-6.39-7.05A7.59,7.59,0,0,1,34.06,56L50.85,40.8a7.59,7.59,0,0,1,10.72.52l6.39,7a7.6,7.6,0,0,1-.52,10.71L50.64,74.32A7.56,7.56,0,0,1,45.55,76.28Zm10.39-33a3.09,3.09,0,0,0-2.09.8L37.06,59.34a3.13,3.13,0,0,0-.22,4.41l6.39,7.05a3.14,3.14,0,0,0,4.41.22L64.44,55.79a3.14,3.14,0,0,0,.22-4.41l-6.39-7.05a3.1,3.1,0,0,0-2.16-1Z"/><rect class="cls-1" x="217.87" y="47.45" width="33.38" height="20.23" rx="6" ry="6" transform="translate(369.65 257.77) rotate(-137.8)"/><path class="cls-2" d="M239.75,76.28a7.52,7.52,0,0,1-5.08-2L217.87,59.09a7.6,7.6,0,0,1-.52-10.71l6.39-7.05a7.6,7.6,0,0,1,10.71-.52L251.25,56a7.6,7.6,0,0,1,.52,10.71l-6.39,7.05a7.53,7.53,0,0,1-5.25,2.47Zm-10.38-33h-.16a3.1,3.1,0,0,0-2.16,1l-6.4,7.05a3.14,3.14,0,0,0,.22,4.41h0L237.66,71a3.15,3.15,0,0,0,2.25.8,3.1,3.1,0,0,0,2.16-1l6.39-7.05a3.14,3.14,0,0,0-.22-4.41L231.46,44.11A3.09,3.09,0,0,0,229.37,43.31Z"/><circle class="cls-1" cx="140.25" cy="12.05" r="7.9"/><path class="cls-2" d="M140.25,22.18a10.13,10.13,0,1,1,10.13-10.13A10.14,10.14,0,0,1,140.25,22.18Zm0-15.8a5.67,5.67,0,1,0,5.67,5.67A5.68,5.68,0,0,0,140.25,6.38Z"/><circle class="cls-1" cx="162" cy="17.41" r="10.37"/><path class="cls-2" d="M162,30a12.6,12.6,0,1,1,12.6-12.6A12.61,12.61,0,0,1,162,30Zm0-20.74a8.14,8.14,0,1,0,8.14,8.14A8.15,8.15,0,0,0,162,9.27Z"/><circle class="cls-1" cx="118.49" cy="17.41" r="10.37"/><path class="cls-2" d="M118.49,30a12.6,12.6,0,1,1,12.6-12.6A12.61,12.61,0,0,1,118.49,30Zm0-20.74a8.14,8.14,0,1,0,8.14,8.14A8.15,8.15,0,0,0,118.49,9.27Z"/><circle class="cls-2" cx="241.32" cy="139.09" r="31"/><path class="cls-3" d="M49.83,111.48A22.31,22.31,0,0,1,35.51,72c5.71-4.77,11.24-9.79,16.6-14.66,23.77-21.59,48.36-43.91,88.14-43.91,49.15,0,81.08,31.44,107.14,60.91A22.31,22.31,0,0,1,214,103.95c-26.3-29.74-45.84-45.85-73.72-45.85-21.5,0-35.41,11.68-58.15,32.33-5.69,5.16-11.57,10.51-18,15.86A22.23,22.23,0,0,1,49.83,111.48Z"/><path class="cls-2" d="M49.83,113.71h0A24.54,24.54,0,0,1,34.08,70.34c5.67-4.74,11.18-9.74,16.52-14.59,24.1-21.88,49-44.5,89.65-44.5,50.08,0,82.43,31.83,108.81,61.66a24.54,24.54,0,0,1-36.76,32.52c-25.87-29.25-45-45.1-72.05-45.1-20.68,0-34.32,11.47-56.65,31.75-5.7,5.18-11.6,10.53-18,15.92A24.57,24.57,0,0,1,49.83,113.71Zm90.42-98c-38.92,0-63.18,22-86.64,43.33C48.23,63.93,42.68,69,36.94,73.76a20.08,20.08,0,1,0,25.75,30.81c6.38-5.33,12.24-10.65,17.91-15.8,23.14-21,37.32-32.9,59.65-32.9,28.73,0,48.66,16.38,75.39,46.6a20.08,20.08,0,1,0,30.08-26.6C220,46.76,188.47,15.71,140.25,15.71Z"/><path class="cls-1" d="M63.65,90.21l-13-14.72q2.66-2.34,5.24-4.68L69.06,85.38Q66.39,87.79,63.65,90.21Zm151.6-3.45c-1.62-1.75-3.23-3.44-4.77-5l14.08-13.68c1.64,1.69,3.34,3.48,5.06,5.33ZM77.66,77.58,64.5,63q2.72-2.45,5.41-4.83l13,14.72Q80.28,75.2,77.66,77.58Zm124.9-3.65c-1.68-1.57-3.37-3.09-5-4.52l12.84-14.85c1.85,1.6,3.73,3.29,5.59,5ZM91.42,65.66,79.06,50.4c2.08-1.68,4-3.2,6-4.63L96.72,61.54C95,62.81,93.28,64.16,91.42,65.66Zm97.67-3c-1.81-1.33-3.62-2.58-5.39-3.73l10.67-16.48c2.1,1.36,4.23,2.83,6.35,4.39ZM105.55,55.6,95.44,38.76c2.31-1.38,4.63-2.66,6.92-3.8l8.77,17.56C109.3,53.44,107.42,54.47,105.55,55.6Zm69-1.88c-1.92-1-3.87-1.84-5.8-2.62l7.35-18.2c2.4,1,4.83,2.06,7.21,3.25Zm-54.11-5L114.42,30c2.57-.84,5.21-1.55,7.83-2.12l4.18,19.18C124.44,47.49,122.44,48,120.49,48.67ZM159,47.9c-2-.51-4.1-.95-6.17-1.28l3.18-19.37c2.61.43,5.23,1,7.8,1.62Zm-22.69-2.19-1.1-19.6c2.62-.15,5.34-.17,8-.1l-.58,19.62C140.57,45.58,138.42,45.6,136.36,45.71Z"/><circle class="cls-1" cx="142.03" cy="267.95" r="7.9"/><path class="cls-2" d="M142,278.08a10.13,10.13,0,1,1,10.13-10.13A10.14,10.14,0,0,1,142,278.08Zm0-15.8a5.67,5.67,0,1,0,5.67,5.67A5.68,5.68,0,0,0,142,262.28Z"/><circle class="cls-1" cx="120.28" cy="262.59" r="10.37"/><path class="cls-2" d="M120.28,275.19a12.6,12.6,0,1,1,12.6-12.6A12.62,12.62,0,0,1,120.28,275.19Zm0-20.74a8.14,8.14,0,1,0,8.14,8.14A8.15,8.15,0,0,0,120.28,254.45Z"/><circle class="cls-1" cx="163.79" cy="262.59" r="10.37"/><path class="cls-2" d="M163.79,275.19a12.6,12.6,0,1,1,12.6-12.6A12.62,12.62,0,0,1,163.79,275.19Zm0-20.74a8.14,8.14,0,1,0,8.14,8.14A8.15,8.15,0,0,0,163.79,254.45Z"/><path class="cls-3" d="M142,264.5c-49.15,0-81.08-31.44-107.14-60.91A22.31,22.31,0,1,1,68.31,174c26.3,29.74,45.84,45.85,73.72,45.85,21.5,0,35.41-11.68,58.15-32.33,5.69-5.16,11.57-10.51,18-15.86a22.31,22.31,0,0,1,28.61,34.24c-5.71,4.77-11.24,9.79-16.6,14.66C206.4,242.18,181.82,264.5,142,264.5Z"/><path class="cls-2" d="M142,266.73c-50.08,0-82.43-31.83-108.81-61.66A24.54,24.54,0,1,1,70,172.56c25.87,29.25,45,45.1,72.05,45.1,20.68,0,34.32-11.47,56.65-31.75,5.7-5.18,11.6-10.53,18-15.92a24.54,24.54,0,0,1,31.47,37.66c-5.67,4.74-11.18,9.74-16.52,14.59C207.58,244.11,182.68,266.73,142,266.73Zm-90.46-98a20.08,20.08,0,0,0-15,33.38C62.3,231.22,93.81,262.27,142,262.27c38.92,0,63.18-22,86.64-43.33,5.38-4.88,10.93-9.92,16.67-14.72a20.08,20.08,0,0,0-25.75-30.81c-6.38,5.33-12.24,10.65-17.91,15.8-23.14,21-37.32,32.9-59.65,32.9-28.73,0-48.66-16.38-75.39-46.6a20,20,0,0,0-13.81-6.74Q52.2,168.74,51.57,168.74Z"/><path class="cls-1" d="M146.79,251.43l-.63-17.84c2.12-.07,4.22-.25,6.27-.51l2.31,17.7C152.14,251.12,149.46,251.34,146.79,251.43ZM135,251.1c-2.62-.23-5.25-.58-7.81-1l3.06-17.58c2.07.36,4.21.64,6.33.83Zm31.52-2.76-4.91-17.16c2-.57,4-1.25,5.94-2l6.55,16.6C171.59,246.75,169,247.62,166.51,248.34Zm-50.84-1c-2.48-.77-5-1.66-7.41-2.64l6.66-16.56c2,.8,4,1.52,6,2.14Zm69.13-6.62-8.64-15.62c1.82-1,3.7-2.14,5.57-3.35l9.72,15C189.22,238.14,187,239.48,184.79,240.7Zm-87.14-1c-2.22-1.21-4.47-2.53-6.67-3.93l9.57-15.07c1.86,1.18,3.76,2.3,5.63,3.31Zm103.1-9.6-10.89-14.14c1.71-1.32,3.45-2.71,5.31-4.26l11.41,13.72C204.54,227.09,202.63,228.62,200.75,230.07Zm-119.18-.92c-1.94-1.48-3.92-3.08-5.9-4.75l11.51-13.64c1.76,1.48,3.52,2.9,5.23,4.21Z"/><circle class="cls-1" cx="241.32" cy="139.09" r="21.98"/><path class="cls-3" d="M241.32,165.54a26.44,26.44,0,1,1,26.45-26.45A26.47,26.47,0,0,1,241.32,165.54Zm0-44a17.52,17.52,0,1,0,17.52,17.52A17.54,17.54,0,0,0,241.32,121.57Z"/><circle class="cls-2" cx="38.16" cy="139.09" r="31"/><circle class="cls-1" cx="38.16" cy="139.09" r="21.98"/><path class="cls-3" d="M38.16,165.54a26.44,26.44,0,1,1,26.44-26.45A26.48,26.48,0,0,1,38.16,165.54Zm0-44a17.52,17.52,0,1,0,17.52,17.52A17.54,17.54,0,0,0,38.16,121.57Z"/></svg>