<svg id="Layer_2" data-name="Layer 2" xmlns="http://www.w3.org/2000/svg" viewBox="0 0 280 280"><defs><style>.cls-1{fill:#60b5e8;}.cls-2{fill:#0051a2;}.cls-3{fill:#fff;}</style></defs><title>Artboard 14 copy 15</title><path class="cls-1" d="M140,263.35A123.35,123.35,0,1,1,263.35,140,123.49,123.49,0,0,1,140,263.35Z"/><path class="cls-2" d="M140,33.3A106.7,106.7,0,1,1,33.3,140,106.7,106.7,0,0,1,140,33.3M140,0A140,140,0,0,0,41,239,140,140,0,0,0,239,41,139.08,139.08,0,0,0,140,0Z"/><polygon class="cls-3" points="196.61 194.08 153.95 194.08 83.39 85.92 126.05 85.92 196.61 194.08"/><rect class="cls-3" x="84.5" y="183.29" width="24.42" height="11.1"/><rect class="cls-3" x="171.08" y="84.5" width="24.42" height="11.1"/></svg>