<svg id="Layer_2" data-name="Layer 2" xmlns="http://www.w3.org/2000/svg" viewBox="0 0 280 280"><defs><style>.cls-1,.cls-3,.cls-5{fill:#fff;}.cls-1,.cls-3,.cls-7{stroke:#20316e;stroke-miterlimit:10;}.cls-1{stroke-width:10px;}.cls-2{fill:#ffc300;}.cls-3{stroke-width:6px;}.cls-4{fill:#ff0029;}.cls-6{fill:#20316e;}.cls-7{fill:none;stroke-width:24px;stroke-dasharray:3 13;}</style></defs><title>Artboard 14 copy 54</title><path class="cls-1" d="M228.78,26H51.22v135.8h.07c0,1.11-.07,2.22-.07,3.34a88.78,88.78,0,1,0,177.56,0c0-1.12,0-2.23-.07-3.34h.07Z"/><circle class="cls-2" cx="140" cy="158.29" r="50.96"/><circle class="cls-3" cx="140" cy="110.29" r="23.11"/><polygon class="cls-4" points="-1.08 191.66 -1.08 175.55 22.75 162.66 21.26 156.7 5.67 155.06 5.67 130.35 0.94 129.68 -5.14 117.19 18.61 116.91 18.61 145.79 22.27 145.57 93.21 114.54 118.5 135.98 123.73 162.49 138.53 182.15 96.65 181.92 92.31 171.07 96.35 165.95 89.34 165.21 93.41 181.12 69.86 188.33 58.26 170.4 68.61 167.45 73.24 172.84 73.64 172.68 70.32 167.23 50.52 167.23 39 178.75 25.09 178.75 12.18 191.66 -1.08 191.66"/><path class="cls-5" d="M92.78,117.46l23.44,19.86,5.16,26.22,12.12,16.09-35.16-.2-3.18-7.94,6-7.55L86,162.35l4.37,17.08-19.47,6-8.74-13.51,5.56-1.59,4.77,5.56,4.77-2-5.56-9.14H49.48L38,176.25H24.06L11.15,189.16H1.42V177l24.23-13.11-2.38-9.53-15.1-1.59V128.18l-5.56-.79-3.77-7.75,17.28-.2v29l6.75-.4,69.92-30.59m.85-5.83-2.86,1.25-69.1,30.23-.57,0V114.39l-5.06.06-17.28.2-7.9.09,3.46,7.1,3.77,7.75L-.73,132l2.63.38,1.27.18v24.79l4.48.47L19.26,159l.59,2.38L-1,172.65l-2.62,1.42v20.1h16.8l1.46-1.46,11.45-11.45H40l1.46-1.46,10.06-10.06h3.29L58,174.6l8.74,13.51,2.05,3.17,3.61-1.1,19.47-6,2.68-.82.41,1,3.36,0,35.16.2,10.1.06-6.07-8.06-11.43-15.17-4.94-25.09-.34-1.72-1.33-1.13L96,113.64l-2.38-2Z"/><polygon class="cls-4" points="267.82 191.66 254.91 178.75 241 178.75 229.48 167.23 209.68 167.23 206.36 172.68 206.76 172.84 211.39 167.45 221.74 170.4 210.14 188.33 186.59 181.12 190.66 165.21 183.65 165.95 187.69 171.07 183.35 181.92 141.47 182.15 156.27 162.49 161.5 135.98 186.79 114.54 257.73 145.57 261.39 145.79 261.39 116.91 285.14 117.19 279.06 129.68 274.33 130.35 274.33 155.06 258.74 156.7 257.25 162.66 281.08 175.55 281.08 191.66 267.82 191.66"/><path class="cls-5" d="M187.22,117.46,257.13,148l6.75.4v-29l17.28.2-3.77,7.75-5.56.79v24.63l-15.1,1.59-2.38,9.53L278.58,177v12.12h-9.73l-12.91-12.91H242l-11.52-11.52H208.27l-5.56,9.14,4.77,2,4.77-5.56,5.56,1.59-8.74,13.51-19.47-6L194,162.35l-15.1,1.59,6,7.55-3.18,7.94-35.16.2,12.12-16.09,5.16-26.22,23.44-19.86m-.85-5.83-2.38,2L160.55,133.5l-1.33,1.13-.34,1.72-4.94,25.09-11.43,15.17-6.07,8.06,10.1-.06,35.16-.2,3.36,0,.41-1,2.68.82,19.47,6,3.61,1.1,2.05-3.17L222,174.6l3.15-4.87h3.29l10.06,10.06,1.46,1.46h13.9l11.45,11.45,1.46,1.46h16.8v-20.1L281,172.65l-20.82-11.26.59-2.38,11.62-1.22,4.48-.47V132.52l1.27-.18,2.63-.37,1.16-2.38,3.77-7.75,3.46-7.1-7.9-.09-17.28-.2-5.06-.06v28.75l-.57,0-69.1-30.23-2.86-1.25Z"/><circle class="cls-6" cx="140" cy="110.29" r="8.9"/><path class="cls-7" d="M83.44,202.89s57.33,58,106.67,0"/><path class="cls-4" d="M213.14,77.57h-7.23V42.22h7.23Zm-17.18,0h-7.23V42.22H196Zm-17.18,0h-7.23V42.22h7.23Zm-17.18,0h-7.23V42.22h7.23Zm-17.18,0H137.2V42.22h7.23Zm-17.18,0H120V42.22h7.23Zm-17.18,0h-7.23V42.22h7.23Zm-17.18,0H85.67V42.22H92.9Zm-17.18,0H68.49V42.22h7.23Z"/></svg>