<svg id="Layer_2" data-name="Layer 2" xmlns="http://www.w3.org/2000/svg" viewBox="0 0 280 280"><defs><style>.cls-1{fill:#009fe2;}.cls-2{fill:#c2894d;}</style></defs><title>Artboard 14 copy 51</title><path class="cls-1" d="M227.24,169.13c-.35,37.47-27.11,65.83-61.18,78.65-8.84,3.33-36,5.33-51.56.58S83.86,235.45,72.6,222.65C48.73,195.52,45,156.27,64.85,125.77c10.07-15.44,22.05-24.22,41.64-32.65,20-6.94,40.08-7.69,63.9-1,25.74,7.82,56.53,42,56.85,77,0,2.08,30.2,2,30.18,0-.4-42.6-34.66-75.34-74.24-85.37-12.43-3.15-25.21-4.28-38-4.55-14.13-.29-28.53.17-42.42,3C82.35,86.31,63,95.4,47.9,109.88c-30,28.73-35,74.41-9.55,107.81,29.87,39.22,83.28,45.73,129.07,39.82,45.6-5.89,89.55-39.2,90-88.38C257.44,167.23,227.26,167,227.24,169.13Z"/><polygon class="cls-2" points="140.03 31.09 127.94 39.51 132.21 25.4 120.46 16.5 135.2 16.2 140.03 2.28 144.87 16.2 159.61 16.5 147.86 25.4 152.13 39.51 140.03 31.09"/><polygon class="cls-1" points="70.4 272.94 51.55 252.29 24.8 272.94 70.4 272.94"/><polygon class="cls-1" points="208.5 272.94 227.36 252.29 254.11 272.94 208.5 272.94"/><path class="cls-1" d="M188.48,73.22l11.6-20.1H166.77l-3.28.14-24.41,123.4L118.3,53.42l-3.18-.3H81.81l12.3,21.31L45.39,272.94H76.79l30.6-162.71S112.51,230.94,139,230.94,174.07,107,174.07,107l27.84,165.92h31.47Z"/><polygon class="cls-1" points="127.03 179.6 106.4 214.89 170.95 214.89 151.35 179.6 127.03 179.6"/></svg>