<svg id="Layer_2" data-name="Layer 2" xmlns="http://www.w3.org/2000/svg" viewBox="0 0 280 280"><defs><style>.cls-1{fill:#d80007;}.cls-2{fill:#00922d;}.cls-3{fill:#0071b9;}.cls-4{fill:#003b73;}.cls-5{fill:#a6d1ed;}.cls-6{fill:#eab338;}.cls-7{fill:#b77200;}.cls-8{fill:#fff;}</style></defs><title>Artboard 14 copy 32</title><circle class="cls-1" cx="91.29" cy="56.13" r="9.11"/><circle class="cls-1" cx="188.71" cy="56.13" r="9.11"/><polygon class="cls-2" points="160.3 0 107.81 25.21 99.63 54.42 180.37 54.42 160.3 0"/><path class="cls-3" d="M140,271.46a100,100,0,1,1,100-100A100.09,100.09,0,0,1,140,271.46Z"/><path class="cls-4" d="M140,80.05a91.43,91.43,0,1,1-91.43,91.43A91.43,91.43,0,0,1,140,80.05M140,63a108.52,108.52,0,1,0,76.74,31.78A107.81,107.81,0,0,0,140,63Z"/><rect class="cls-5" x="99.63" y="80.05" width="80.74" height="91.43"/><polygon class="cls-6" points="103.04 75.78 96.44 46.73 183.56 46.73 176.96 75.78 103.04 75.78"/><path class="cls-7" d="M178.21,51l-4.66,20.5h-67.1L101.79,51h76.42m10.71-8.54H91.08l8.54,37.59h80.74l8.54-37.59Z"/><path class="cls-1" d="M130.6,98.55v17.82H117.78V98.55H130.6m9.4-9.4H108.38v36.62H140V89.15Z"/><path class="cls-1" d="M162.22,135.06v18.17H149.51V135.06h12.71m9.4-9.4h-31.5v37h31.5v-37Z"/><path class="cls-8" d="M171.83,88.6v74.34H108.17V88.6h63.66m8.54-8.54H99.63v91.43h80.74V80.05Z"/><circle class="cls-8" cx="140" cy="205.66" r="9.11"/><circle class="cls-6" cx="108.38" cy="191.13" r="9.11"/><circle class="cls-6" cx="171.62" cy="191.13" r="9.11"/><circle class="cls-6" cx="198.1" cy="142.43" r="9.11"/><circle class="cls-6" cx="81.9" cy="142.43" r="9.11"/><circle class="cls-6" cx="81.9" cy="99.7" r="9.11"/><circle class="cls-6" cx="198.1" cy="99.7" r="9.11"/><rect class="cls-1" x="100.68" y="19.38" width="74.36" height="11.11" transform="translate(-0.54 3.18) rotate(-1.32)"/><rect class="cls-4" x="118.64" y="125.34" width="11.11" height="37.6"/><rect class="cls-4" x="150.25" y="88.6" width="11.11" height="37.6"/></svg>