<svg id="Layer_2" data-name="Layer 2" xmlns="http://www.w3.org/2000/svg" xmlns:xlink="http://www.w3.org/1999/xlink" viewBox="0 0 280 280"><defs><style>.cls-1{fill:none;}.cls-2{fill:#fff;}.cls-3{fill:#005190;}.cls-4{clip-path:url(#clip-path);}.cls-5{fill:#eb4047;}</style><clipPath id="clip-path"><circle class="cls-1" cx="141.08" cy="140" r="77.97"/></clipPath></defs><title>Artboard 14 copy 8</title><circle class="cls-2" cx="140" cy="140" r="134.59"/><path class="cls-3" d="M140,280C62.8,280,0,217.2,0,140S62.8,0,140,0,280,62.8,280,140,217.2,280,140,280Zm0-269.18A129.18,129.18,0,1,0,269.18,140,129.33,129.33,0,0,0,140,10.82Z"/><circle class="cls-3" cx="140" cy="140" r="120.11"/><path class="cls-2" d="M140,224.47A84.47,84.47,0,1,1,224.47,140,84.56,84.56,0,0,1,140,224.47Zm0-158.11A73.65,73.65,0,1,0,213.65,140,73.73,73.73,0,0,0,140,66.35Z"/><g class="cls-4"><path class="cls-5" d="M104.79,219.42A111,111,0,0,1,59.1,189.15l-4.9-5.41,6.6-3.12A116.48,116.48,0,0,0,127.25,75.77a115.71,115.71,0,0,0-16.71-60l-3.79-6.25,7.09-1.8a111.12,111.12,0,0,1,54.49,0l7.09,1.8-3.79,6.25a116,116,0,0,0,49.74,164.85l6.6,3.12-4.9,5.41a111,111,0,0,1-45.69,30.27l-11.93,4.15,5.23-11.5a32.51,32.51,0,1,0-59.19,0l5.23,11.5Z"/><path class="cls-2" d="M141.08,9.75A105.37,105.37,0,0,1,167,13a121.38,121.38,0,0,0,52.06,172.54,105.3,105.3,0,0,1-43.46,28.79,37.92,37.92,0,1,0-69,0,105.31,105.31,0,0,1-43.46-28.79A121.33,121.33,0,0,0,132.66,75.77,120.75,120.75,0,0,0,115.16,13a105.36,105.36,0,0,1,25.92-3.23m0-10.82a116.41,116.41,0,0,0-28.58,3.56L98.33,6.08l7.58,12.51a110.29,110.29,0,0,1,15.93,57.19,110.06,110.06,0,0,1-17.63,59.9,110.79,110.79,0,0,1-45.73,40.07L45.29,182l9.8,10.81A116.41,116.41,0,0,0,103,224.53l23.87,8.29-10.47-23a27.1,27.1,0,1,1,49.34,0l-10.47,23,23.87-8.29a116.41,116.41,0,0,0,47.92-31.75l9.8-10.81-13.19-6.23A110.56,110.56,0,0,1,176.25,18.58l7.58-12.51L169.66,2.48a116.41,116.41,0,0,0-28.58-3.56Z"/></g></svg>