<svg id="Layer_2" data-name="Layer 2" xmlns="http://www.w3.org/2000/svg" xmlns:xlink="http://www.w3.org/1999/xlink" viewBox="0 0 280 280"><defs><style>.cls-1{fill:none;}.cls-2{fill:#e6e7e8;}.cls-3{fill:#c19934;}.cls-4{clip-path:url(#clip-path);}.cls-5{fill:#d62c00;}.cls-6{fill:#fff;}.cls-7{fill:#231f20;}</style><clipPath id="clip-path"><ellipse class="cls-1" cx="140" cy="140" rx="117.38" ry="72.79"/></clipPath></defs><title>Artboard 14 copy 20</title><path class="cls-2" d="M140,224.1c-33.43,0-65-8.18-89-23C25.42,185.2,11.31,163.5,11.31,140S25.42,94.8,51,78.91c23.94-14.84,55.53-23,89-23s65,8.18,89,23C254.58,94.8,268.69,116.5,268.69,140S254.58,185.2,229,201.09C205,215.93,173.43,224.1,140,224.1Z"/><path class="cls-3" d="M140,67.21c64.83,0,117.38,32.59,117.38,72.79S204.83,212.79,140,212.79,22.62,180.2,22.62,140,75.17,67.21,140,67.21m0-22.62C61.5,44.59,0,86.5,0,140s61.5,95.41,140,95.41S280,193.5,280,140,218.5,44.59,140,44.59Z"/><g class="cls-4"><rect class="cls-5" x="132.42" y="-87.19" width="15.16" height="322.11" transform="translate(213.86 -66.14) rotate(90)"/><rect class="cls-5" x="132.42" y="-54.12" width="15.16" height="322.11" transform="translate(246.93 -33.07) rotate(90)"/><rect class="cls-5" x="132.42" y="-21.05" width="15.16" height="322.11" transform="translate(280 0) rotate(90)"/><rect class="cls-5" x="132.42" y="12.01" width="15.16" height="322.11" transform="translate(313.07 33.07) rotate(90)"/><rect class="cls-5" x="132.42" y="45.08" width="15.16" height="322.11" transform="translate(346.14 66.14) rotate(90)"/></g><path class="cls-6" d="M69.48,82.35l187.34,50.53L56.91,191.41C126.35,136.88,69.48,82.35,69.48,82.35Z"/><rect class="cls-7" x="98" y="132.52" width="28.5" height="11.31" transform="translate(-52.36 205.99) rotate(-73.3)"/><rect class="cls-7" x="114.68" y="132.52" width="28.5" height="11.31" transform="translate(-40.47 221.97) rotate(-73.3)"/><rect class="cls-7" x="131.36" y="132.52" width="28.5" height="11.31" transform="translate(-28.58 237.95) rotate(-73.3)"/><rect class="cls-7" x="148.04" y="132.52" width="28.5" height="11.31" transform="translate(-16.69 253.93) rotate(-73.3)"/></svg>