<svg id="Layer_2" data-name="Layer 2" xmlns="http://www.w3.org/2000/svg" xmlns:xlink="http://www.w3.org/1999/xlink" viewBox="0 0 280 280"><defs><style>.cls-1{fill:none;}.cls-2{fill:#fff;}.cls-3{fill:#9d8346;}.cls-4{clip-path:url(#clip-path);}.cls-5{fill:#d62c00;}</style><clipPath id="clip-path"><path class="cls-1" d="M68.63,130.29A321.65,321.65,0,0,0,140,251.46a321.64,321.64,0,0,0,71.37-121.17Z"/></clipPath></defs><title>Artboard 14 copy 14</title><path class="cls-2" d="M227.06,38.87A323.84,323.84,0,0,1,140,251.3,323.84,323.84,0,0,1,52.94,38.87,75.3,75.3,0,0,0,97,53a75.3,75.3,0,0,0,43-13.44A75.3,75.3,0,0,0,183,53a75.3,75.3,0,0,0,44-14.12"/><path class="cls-3" d="M227.06,38.87A323.84,323.84,0,0,1,140,251.3,323.84,323.84,0,0,1,52.94,38.87,75.3,75.3,0,0,0,97,53a75.3,75.3,0,0,0,43-13.44A75.3,75.3,0,0,0,183,53a75.3,75.3,0,0,0,44-14.12M247.7,0l-32,23A55.67,55.67,0,0,1,183,33.42a55.73,55.73,0,0,1-31.9-10L140,15.73l-11.15,7.73a55.73,55.73,0,0,1-31.9,10A55.67,55.67,0,0,1,64.34,23L32.3,0l1.08,39.4a344.07,344.07,0,0,0,92.3,225.23L140,280l14.32-15.36A344.07,344.07,0,0,0,246.62,39.4L247.7,0Z"/><g class="cls-4"><rect class="cls-5" x="95.65" y="32.59" width="17.28" height="305.79"/><rect class="cls-5" x="131.36" y="32.59" width="17.28" height="305.79"/><rect class="cls-5" x="167.07" y="32.59" width="17.28" height="305.79"/></g><circle class="cls-3" cx="140" cy="130.29" r="26.47"/><path class="cls-5" d="M134.63,93.31c-13-10.3-28.14-15.74-43.88-15.74a68.18,68.18,0,0,0-31.21,7.58L48.47,90.8,47.05,78.45c-1.51-13.15-2.43-26.4-2.74-39.38l-.45-18.83,14.56,12C69.74,41.49,83.07,46.4,97,46.4a60.24,60.24,0,0,0,37.68-13.52L140,28.62l5.37,4.26A60.24,60.24,0,0,0,183,46.4c13.88,0,27.21-4.91,38.54-14.21l14.56-12-.45,18.83c-.31,13-1.23,26.23-2.75,39.38L231.53,90.8l-11.08-5.64a68.18,68.18,0,0,0-31.2-7.58c-15.74,0-30.91,5.44-43.88,15.74L140,97.58Z"/><path class="cls-3" d="M227.06,38.87c-.31,13-1.23,25.92-2.69,38.6a77,77,0,0,0-35.12-8.52c-18.3,0-35.27,6.51-49.25,17.61-14-11.1-30.95-17.61-49.25-17.61a77,77,0,0,0-35.12,8.52c-1.46-12.68-2.38-25.55-2.69-38.6A69.05,69.05,0,0,0,97,55a68.89,68.89,0,0,0,43-15.39A68.89,68.89,0,0,0,183,55a69.05,69.05,0,0,0,44-16.17M245.23,1.62l-29.12,23.9A51.79,51.79,0,0,1,183,37.77a51.69,51.69,0,0,1-32.31-11.65L140,17.6l-10.74,8.52A51.69,51.69,0,0,1,97,37.77,51.79,51.79,0,0,1,63.89,25.52L34.77,1.62l.91,37.66C36,52.53,36.94,66,38.48,79.44l2.84,24.7L63.47,92.85a59.62,59.62,0,0,1,27.29-6.64c13.77,0,27.08,4.79,38.51,13.87L140,108.6l10.74-8.52c11.43-9.07,24.74-13.87,38.51-13.87a59.61,59.61,0,0,1,27.29,6.64l22.15,11.29,2.84-24.7c1.54-13.39,2.48-26.9,2.8-40.16l.91-37.66Z"/></svg>