<svg id="Layer_2" data-name="Layer 2" xmlns="http://www.w3.org/2000/svg" xmlns:xlink="http://www.w3.org/1999/xlink" viewBox="0 0 280 280"><defs><style>.cls-1{fill:none;}.cls-2{fill:#fff;}.cls-3{fill:#ffba00;}.cls-4{fill:#aabac2;}.cls-5{fill:#f12e15;}.cls-6{fill:#ffbf00;}.cls-7{clip-path:url(#clip-path);}.cls-8{fill:#0094dd;}.cls-9{fill:#009345;}</style><clipPath id="clip-path"><circle class="cls-1" cx="138.88" cy="163.92" r="78.47"/></clipPath></defs><title>Artboard 14 copy 7</title><circle class="cls-2" cx="138.88" cy="163.92" r="78.47"/><polygon class="cls-3" points="176.72 60 99.12 60 0 4.73 280 4.73 176.72 60"/><path class="cls-4" d="M138.88,87.09a77.34,77.34,0,1,1-77.34,77.34,77.43,77.43,0,0,1,77.34-77.34m0-33.5A110.84,110.84,0,1,0,249.72,164.43,110.84,110.84,0,0,0,138.88,53.59Z"/><polyline class="cls-5" points="74.68 133.16 139.29 133.16 139.29 254.87"/><circle class="cls-6" cx="140" cy="178.44" r="31.26"/><g class="cls-7"><rect class="cls-8" x="42.15" y="150.82" width="195.7" height="27.23" transform="translate(-75.26 147.16) rotate(-45)"/></g><rect class="cls-9" x="14.94" y="95.17" width="125.06" height="28.47"/><rect class="cls-5" x="140" y="95.17" width="125.06" height="28.47"/></svg>