<svg id="Layer_2" data-name="Layer 2" xmlns="http://www.w3.org/2000/svg" xmlns:xlink="http://www.w3.org/1999/xlink" viewBox="0 0 280 280"><defs><style>.cls-1,.cls-10,.cls-2,.cls-9{fill:none;}.cls-2,.cls-6,.cls-7,.cls-9{stroke:#221e1f;}.cls-10,.cls-2,.cls-6,.cls-7,.cls-9{stroke-miterlimit:10;}.cls-2{stroke-width:30px;}.cls-3{fill:#221e1f;}.cls-4{fill:#00b0f5;}.cls-5{fill:#ff0031;}.cls-6{fill:#00b63b;}.cls-6,.cls-7,.cls-9{stroke-width:5px;}.cls-7{fill:#fff;}.cls-8{fill:#ffc300;}.cls-10{stroke:#ffc300;stroke-width:13px;stroke-dasharray:5 9;}.cls-11{clip-path:url(#clip-path);}.cls-12{fill:#ffc000;}.cls-13{clip-path:url(#clip-path-2);}</style><clipPath id="clip-path"><polygon class="cls-1" points="224.19 105.94 180.4 88.94 139.07 105.94 94.41 88.94 55.95 105.94 35.41 62.27 80.41 43.27 139.74 65.94 201.07 43.27 243.74 60.94 224.19 105.94"/></clipPath><clipPath id="clip-path-2"><circle class="cls-1" cx="140" cy="44" r="28.07"/></clipPath></defs><title>Artboard 14 copy 53</title><path class="cls-2" d="M50.9,198.94a94.51,94.51,0,0,0,178.2,0"/><path class="cls-3" d="M73.59,102.44V64.94H206.41v37.5Z"/><path class="cls-4" d="M73.59,174.44v-4.5H206.41v4.5Z"/><path class="cls-4" d="M73.59,164.44v-4.5H206.41v4.5Z"/><path class="cls-5" d="M140,246.94l-66.41-24.5v-43.5H206.41v43.5Z"/><ellipse class="cls-6" cx="140" cy="133.08" rx="28.14" ry="19.29"/><circle class="cls-7" cx="140" cy="210" r="20.65"/><circle class="cls-8" cx="140" cy="210" r="6.98"/><path class="cls-9" d="M140,246.94l-66.41-24.5V64.94H206.41v157.5Z"/><path class="cls-10" d="M57.75,213.94a94.46,94.46,0,0,0,164.49,0"/><polygon class="cls-7" points="224.19 105.94 180.4 88.94 139.07 105.94 94.41 88.94 55.95 105.94 35.41 62.27 80.41 43.27 139.74 65.94 201.07 43.27 243.74 60.94 224.19 105.94"/><g class="cls-11"><polygon class="cls-5" points="408.4 271.69 267 271.69 406.26 247.13 402.35 224.97 263.08 249.53 395.97 201.16 388.27 180.02 255.39 228.38 377.86 157.68 366.61 138.19 244.15 208.9 352.47 118 338.01 100.77 229.68 191.66 320.58 83.34 303.34 68.87 212.44 177.2 283.15 54.73 257.66 40.48 186.96 162.95 241.32 33.07 220.18 25.37 171.81 158.25 196.37 18.99 174.21 15.08 149.66 154.35 149.66 12.94 127.15 12.94 127.15 154.34 102.6 15.08 80.44 18.99 105 158.26 56.63 25.37 35.49 33.07 89.52 164.28 18.81 41.82 -6.34 54.73 64.37 177.2 -26.53 68.87 -43.77 83.34 47.13 191.66 -61.2 100.77 -75.66 118 32.67 208.9 -89.8 138.19 -101.05 157.68 21.42 228.38 -111.47 180.02 -119.16 201.16 13.73 249.53 -125.54 224.97 -129.45 247.13 9.81 271.69 -131.59 271.69 -131.59 294.19 9.82 294.19 -129.45 318.74 -125.54 340.9 13.72 316.34 -119.16 364.71 -111.47 385.85 21.42 337.49 -101.05 408.19 -89.8 427.68 32.67 356.97 -75.66 447.87 -61.2 465.11 47.13 374.21 -43.77 482.54 -26.53 497 64.37 388.67 -6.34 511.14 13.15 522.39 83.85 399.93 35.49 532.8 56.63 540.5 105 407.61 80.44 546.88 102.6 550.79 127.15 411.53 127.15 552.94 149.66 552.94 149.66 411.52 174.21 550.79 196.37 546.88 171.81 407.62 220.18 540.5 241.32 532.8 192.96 399.92 263.66 522.39 283.15 511.14 212.44 388.67 303.34 497 320.58 482.54 229.68 374.21 338.01 465.11 352.47 447.87 244.14 356.97 366.61 427.68 377.86 408.19 255.39 337.49 388.27 385.85 395.97 364.71 263.09 316.34 402.35 340.9 406.26 318.74 266.99 294.19 408.4 294.19 408.4 271.69"/></g><polygon class="cls-9" points="224.19 105.94 180.4 88.94 139.07 105.94 94.41 88.94 55.95 105.94 35.41 62.27 80.41 43.27 139.74 65.94 201.07 43.27 243.74 60.94 224.19 105.94"/><path class="cls-12" d="M140,40.76c-36,0-43.51-9.15-43.51-16.83,0-10,13.62-20.83,43.51-20.83s43.51,10.8,43.51,20.83C183.51,31.61,176,40.76,140,40.76ZM109.54,24c1,2.18,10.92,10.79,30.87,10.79,19.74,0,29.25-8.63,30.07-10.78-1-1.82-10.49-7.88-30.47-7.88S110.58,22.13,109.54,24Z"/><path d="M140,5.61c26.92,0,41,9.22,41,18.33s-14.09,14.33-41,14.33S99,33,99,23.94,113.07,5.61,140,5.61m.41,31.65c21.36,0,32.61-9.82,32.61-13.33s-11.65-10.33-33-10.33-33,6.82-33,10.33S119,37.26,140.4,37.26M140,.61c-13.27,0-24.63,2.17-32.84,6.28C98.67,11.13,94,17.19,94,23.94c0,4.75,2.38,11.26,13.74,15.29,7.55,2.68,18.41,4,32.27,4s24.73-1.36,32.27-4C183.63,35.2,186,28.69,186,23.94c0-6.75-4.68-12.8-13.17-17.05C164.63,2.78,153.27.61,140,.61ZM113,24.22c3.33-2.15,12.31-5.61,27-5.61a68.24,68.24,0,0,1,20.65,2.79,26.26,26.26,0,0,1,6.45,2.89c-3,2.84-11.82,8-26.69,8-15.1,0-24.24-5.16-27.43-8Z"/><circle class="cls-7" cx="140" cy="44" r="28.07"/><g class="cls-13"><circle class="cls-3" cx="140" cy="18.27" r="9.49"/><circle class="cls-3" cx="156.91" cy="63.24" r="9.49"/><circle class="cls-3" cx="124.38" cy="63.24" r="9.49"/><circle class="cls-3" cx="162.91" cy="35.24" r="9.49"/><circle class="cls-3" cx="117.38" cy="35.24" r="9.49"/></g><circle class="cls-3" cx="140" cy="44" r="9.49"/></svg>