<svg id="Layer_2" data-name="Layer 2" xmlns="http://www.w3.org/2000/svg" xmlns:xlink="http://www.w3.org/1999/xlink" viewBox="0 0 280 280"><defs><style>.cls-1{fill:none;}.cls-2{fill:#176e45;}.cls-3{clip-path:url(#clip-path);}.cls-4{fill:#fff;}.cls-5{fill:#f1ba2c;}</style><clipPath id="clip-path"><path class="cls-1" d="M269.71,110.56A174.85,174.85,0,0,0,256.35,43.4a175.46,175.46,0,0,0-233.7,2.37A175.63,175.63,0,0,0,140,280,175.55,175.55,0,0,0,269.71,110.56Z"/></clipPath></defs><title>Artboard 14 copy 21</title><path class="cls-2" d="M269.71,110.56A174.85,174.85,0,0,0,256.35,43.4a175.46,175.46,0,0,0-233.7,2.37A175.63,175.63,0,0,0,140,280,175.55,175.55,0,0,0,269.71,110.56Z"/><g class="cls-3"><rect class="cls-4" x="-24.98" y="100" width="329.56" height="72.96"/></g><g class="cls-3"><rect class="cls-2" x="11.27" y="115.56" width="259.41" height="13.65"/><rect class="cls-2" x="11.27" y="143.85" width="259.41" height="13.65"/></g><path class="cls-2" d="M215.93,122.77a102.36,102.36,0,0,0-7.82-39.32A102.72,102.72,0,0,0,71.3,84.83,102.81,102.81,0,0,0,140,222,102.77,102.77,0,0,0,215.93,122.77Z"/><path class="cls-4" d="M140,229.44l-1.88-.51A110,110,0,0,1,64.59,82.16l.62-1.55,1.23-1.12A109.95,109.95,0,0,1,212.87,78l1.27,1.11.65,1.56a110,110,0,0,1-72.91,148.26ZM77.42,89.06A95.6,95.6,0,0,0,140,214.45,95.54,95.54,0,0,0,202.07,87.78,95.49,95.49,0,0,0,77.42,89.06Z"/><rect class="cls-5" x="125.78" y="90.64" width="28.05" height="87.37"/></svg>