<svg id="Layer_2" data-name="Layer 2" xmlns="http://www.w3.org/2000/svg" viewBox="0 0 280 280"><defs><style>.cls-1,.cls-4{fill:#da0312;}.cls-2{fill:#ffed00;}.cls-3{fill:none;stroke:#000;stroke-miterlimit:10;stroke-width:10px;}.cls-4{fill-rule:evenodd;}</style></defs><title>Artboard 14 copy 42</title><path class="cls-1" d="M260.92,13.76c-1.55,46.46-13.74,95.89-34.73,140.32A329.52,329.52,0,0,1,186.07,219,247.58,247.58,0,0,1,140,264a247.56,247.56,0,0,1-46.07-45,329.5,329.5,0,0,1-40.12-64.94c-21-44.43-33.19-93.86-34.73-140.32H260.92m10.17-10H8.91C8.91,107,60.84,221.88,140,276.24,219.16,221.88,271.09,107,271.09,3.76Z"/><path class="cls-2" d="M140,244.91c-28.37-23.59-54.06-58-72.62-97.24l-.43-.91c3.35.3,6.71.45,10.05.45A112.16,112.16,0,0,0,140,128a112.16,112.16,0,0,0,63,19.18c3.35,0,6.71-.15,10.05-.45l-.43.91C194.06,186.95,168.37,221.32,140,244.91Z"/><path d="M140,134a117.12,117.12,0,0,0,63,18.21h1.87C187.65,186.58,165,216.71,140,238.35c-25-21.63-47.65-51.77-64.86-86.16H77A117.12,117.12,0,0,0,140,134m0-12.06a107.5,107.5,0,0,1-63,20.27,108.69,108.69,0,0,1-18.29-1.55c1.34,3.07,2.72,6.12,4.15,9.15,19.76,41.82,46.84,77.37,77.15,101.55,30.31-24.19,57.38-59.73,77.15-101.55,1.43-3,2.8-6.08,4.15-9.15A108.69,108.69,0,0,1,203,142.21a107.5,107.5,0,0,1-63-20.27Z"/><line class="cls-3" x1="102.25" y1="168.21" x2="181.09" y2="168.21"/><line class="cls-3" x1="115.47" y1="188.21" x2="167.87" y2="188.21"/><line class="cls-3" x1="126.58" y1="208.21" x2="156.76" y2="208.21"/><rect class="cls-1" x="133.76" y="27.16" width="12.47" height="77.55"/><rect class="cls-1" x="174.9" y="29.16" width="12.47" height="77.55" transform="translate(249.07 -113.2) rotate(90)"/><rect class="cls-1" x="173.55" y="4.17" width="15.16" height="77.55" transform="translate(224.08 -138.19) rotate(90)"/><rect class="cls-1" x="165.23" y="24.94" width="26.33" height="58"/><rect class="cls-1" x="209.86" y="24.94" width="21.84" height="72.57"/><polygon class="cls-4" points="160 115.31 160 94.94 232.33 94.94 225.33 115.31 160 115.31"/><rect class="cls-1" x="92.99" y="29.16" width="12.47" height="77.55" transform="translate(167.16 -31.29) rotate(90)"/><rect class="cls-1" x="91.64" y="4.17" width="15.16" height="77.55" transform="translate(142.17 -56.28) rotate(90)"/><rect class="cls-1" x="88.8" y="24.94" width="26.33" height="58" transform="translate(203.93 107.87) rotate(-180)"/><rect class="cls-1" x="48.66" y="24.94" width="21.84" height="72.57" transform="translate(119.17 122.44) rotate(-180)"/><polygon class="cls-4" points="120.36 115.31 120.36 94.94 48.03 94.94 55.03 115.31 120.36 115.31"/></svg>