<svg id="Layer_2" data-name="Layer 2" xmlns="http://www.w3.org/2000/svg" xmlns:xlink="http://www.w3.org/1999/xlink" viewBox="0 0 280 280"><defs><style>.cls-1{fill:none;}.cls-2{fill:#fff;}.cls-3{clip-path:url(#clip-path);}.cls-4{fill:#00a44e;}.cls-5{fill:#ee1515;}</style><clipPath id="clip-path"><path class="cls-1" d="M43.81,10c20,92.92-20.92,126.49,0,177.28s69.84,58.36,95.61,79.81c23.71-19.68,71.71-30,95.61-79.81S214.66,102.88,235,10Z"/></clipPath></defs><title>Artboard 14 copy 27</title><path class="cls-2" d="M66.77,30.87c5.62,40,.14,68-4.34,90.91l-.08.41c-4.34,22.17-7.47,38.19.23,56.88,11.62,28.21,34.34,40,56.31,51.48,7.23,3.77,14.15,7.37,20.57,11.47,5.33-3.41,11.2-6.66,17.93-10.32,22.35-12.16,45.47-24.74,59.29-53.55,8.71-18.14,5.33-34.25.64-56.55-4.86-23.12-10.77-51.3-5.25-90.73Z"/><g class="cls-3"><rect class="cls-4" x="-83.48" y="37.89" width="231.41" height="340.6" transform="translate(-139.67 86.39) rotate(-45.88)"/><rect class="cls-5" x="117.11" y="-67.42" width="20.28" height="340.6" transform="translate(289.69 83.15) rotate(134.12)"/></g><path class="cls-2" d="M139.44,266.41l-5.87-4.31c-6.77-5-15.07-9.29-23.86-13.87-22.8-11.87-51.16-26.63-65.55-61.57-10-24.23-6-44.65-1.35-68.29l.08-.41c4.82-24.62,10.28-52.52,2.39-95.23L43.09,11H235.83L233.6,22.76c-7.89,41.82-2,69.89,3.2,94.66,5.09,24.25,9.47,45.11-2.16,69.35-16.61,34.61-45,50-67.73,62.42-8.64,4.7-15.72,8.64-21.59,12.92ZM66.77,30.87c5.62,40,.14,68-4.34,90.91l-.08.41c-4.34,22.17-7.47,38.19.23,56.88,11.62,28.21,34.34,40,56.31,51.48,7.23,3.77,14.15,7.37,20.57,11.47,5.33-3.41,11.2-6.66,17.93-10.32,22.35-12.16,45.47-24.74,59.29-53.55,8.71-18.14,5.33-34.25.64-56.55-4.86-23.12-10.77-51.3-5.25-90.73Z"/><path d="M139.41,280l-6.36-5.29c-7.16-6-16.95-11.05-27.31-16.45C81.09,245.43,50.42,229.46,34.6,191c-11-26.82-6.73-48.87-1.73-74.4,5.29-27,11.28-57.66,1.2-104.58L31.48,0H247.42l-2.65,12.09c-10.11,46.1-3.7,76.63,2,103.57,5.51,26.22,10.26,48.87-2.71,75.89-18.12,37.75-48.67,54.37-73.21,67.73-10,5.45-18.65,10.15-25,15.44ZM55.87,19.92c7.54,44.37,1.49,75.29-3.45,100.54-4.74,24.21-8.16,41.71.6,63,13.05,31.7,37.89,44.63,61.91,57.14,8.74,4.55,17.1,8.9,24.51,14a252.1,252.1,0,0,1,21.84-12.82c23.17-12.61,49.44-26.9,64.77-58.85,10-20.92,6.32-38.64,1.17-63.17-5.29-25.21-11.78-56.07-4.28-99.84Z"/><path d="M171.74,97.38A33.28,33.28,0,1,1,205,64.11,33.31,33.31,0,0,1,171.74,97.38Zm0-56.59a23.32,23.32,0,1,0,23.32,23.32A23.34,23.34,0,0,0,171.74,40.79Z"/><polygon points="185.24 75.69 160.84 75.69 160.84 50.29 169.8 50.29 169.8 66.73 185.24 66.73 185.24 75.69"/></svg>