<svg id="Layer_2" data-name="Layer 2" xmlns="http://www.w3.org/2000/svg" viewBox="0 0 280 280"><defs><style>.cls-1{fill:#87243a;}.cls-2{fill:#00b1ea;}.cls-3,.cls-5,.cls-6{fill:none;stroke-miterlimit:10;}.cls-3{stroke:#fed700;}.cls-3,.cls-6{stroke-width:15px;}.cls-4{fill:#fed700;}.cls-5,.cls-6{stroke:#fff;}.cls-5{stroke-width:24px;stroke-dasharray:10 10;}.cls-6{stroke-dasharray:8 10;}</style></defs><title>Artboard 14 copy 52</title><path class="cls-1" d="M140.12,272.17c-63-8.36-110.41-62.5-110.41-126.21,0-31.36-.19-110.81-.23-130.16a811.86,811.86,0,0,1,114.31-8c37.87,0,73.76,2.67,106.75,8V146C250.53,209.67,203.11,263.81,140.12,272.17Z"/><path class="cls-2" d="M143.79,12.82A679.92,679.92,0,0,1,245.53,20V146A122.35,122.35,0,0,1,140.12,267.12,122.35,122.35,0,0,1,34.71,146c0-29.39-.16-101-.22-125.84a816.9,816.9,0,0,1,109.3-7.31m0-10c-68.47,0-119.32,8.71-119.32,8.71s.24,98.38.24,134.44A132.34,132.34,0,0,0,140.12,277.21,132.34,132.34,0,0,0,255.53,146V11.52C216.66,5,178,2.82,143.79,2.82Z"/><line class="cls-3" x1="84.2" y1="91.78" x2="199.38" y2="211.23"/><line class="cls-3" x1="81" y1="210.16" x2="196.18" y2="92.85"/><rect class="cls-4" x="171.73" y="84.74" width="44.18" height="22.53" transform="translate(124.65 -108.93) rotate(45)"/><rect class="cls-4" x="66.9" y="84.74" width="44.18" height="22.53" transform="translate(219.8 100.96) rotate(135)"/><path class="cls-5" d="M56.14,47.6s90.77-10.67,167.72,0"/><path class="cls-6" d="M178.4,227.86s-39,25.07-76.81,0"/></svg>