<svg id="Layer_2" data-name="Layer 2" xmlns="http://www.w3.org/2000/svg" viewBox="0 0 280 280"><defs><style>.cls-1{fill:#0097db;}.cls-2{fill:#cfaf2b;}</style></defs><title>Artboard 14 copy 35</title><rect class="cls-1" x="178.55" y="176.77" width="11.75" height="35.61"/><rect class="cls-1" x="199.41" y="176.77" width="11.75" height="35.61"/><rect class="cls-1" x="220.27" y="176.77" width="11.75" height="35.61"/><rect class="cls-1" x="241.13" y="176.77" width="11.75" height="35.61"/><polygon class="cls-2" points="140.48 78.37 119.59 92.9 126.96 68.55 106.68 53.17 132.12 52.66 140.48 28.62 148.83 52.66 174.27 53.17 153.99 68.55 161.36 92.9 140.48 78.37"/><path class="cls-1" d="M278.06,107.91H162.33l-11.86,5.15V107.5H133.75v12.8l-14.2,6.16V108.34H102.84v25.38l-13.37,5.8V110H72.77v36.76l-13.53,5.87V103.76L5.42,126.11l6.41,15.43,30.7-12.75v31.1l-39.09,17v55.87l55.79-26.78V170.86L72.77,165v31.07Zm-96.41,23.21v-6.5H196.8ZM164.94,125v13.31l-14.48,6.22V131.27Zm-31.19,13.53v13.16l-14.2,6.1v-13.1ZM89.48,157.73l13.37-5.8v13L89.48,170.7ZM42.53,195.43,20.15,206.17V187.82l22.38-9.71Z"/></svg>